<?xml version="1.0" encoding="utf-8"?>
<!-- Generator: Adobe Illustrator 25.2.1, SVG Export Plug-In . SVG Version: 6.00 Build 0)  -->
<svg version="1.1" id="Capa_1" xmlns="http://www.w3.org/2000/svg" xmlns:xlink="http://www.w3.org/1999/xlink" x="0px" y="0px"
	 viewBox="0 0 112.8 112.8" style="enable-background:new 0 0 112.8 112.8;" xml:space="preserve">
<style type="text/css">
	.st0{fill-rule:evenodd;clip-rule:evenodd;fill:#FFCA28;}
	.st1{fill-rule:evenodd;clip-rule:evenodd;fill:#F9F7F8;}
	.st2{fill-rule:evenodd;clip-rule:evenodd;fill:#4DD0E1;}
	.st3{fill-rule:evenodd;clip-rule:evenodd;fill:#EB5468;}
	.st4{fill-rule:evenodd;clip-rule:evenodd;fill:#DDDAEC;}
	.st5{fill-rule:evenodd;clip-rule:evenodd;fill:#E5384F;}
	.st6{fill-rule:evenodd;clip-rule:evenodd;fill:#1EBACE;}
	.st7{fill-rule:evenodd;clip-rule:evenodd;fill:#FFA726;}
	.st8{fill:#111E61;}
</style>
<g id="_004-list" transform="translate(0)">
	<g id="Grupo_26740" transform="translate(26.438 77.008)">
		<path id="Trazado_26105" class="st0" d="M10.6,26.9h58.2l5.6-10.6L68.8,5.6H10.6V26.9z"/>
	</g>
	<g id="Grupo_26741" transform="translate(1.488 75.172)">
		<path id="Trazado_26106" class="st1" d="M35.5,28.7V6.6c0-0.6-0.5-1-1-1H11.6c-0.6,0-1,0.5-1,1c0,0,0,0,0,0v22.9c0,0.6,0.4,1,1,1
			h22.9c0.6,0,1-0.5,1-1V28.7L35.5,28.7z"/>
	</g>
	<g id="Grupo_26742" transform="translate(1.488 38.328)">
		<path id="Trazado_26107" class="st1" d="M11.6,30.6h22.9c0.6,0,1-0.5,1-1V6.6c0-0.6-0.5-1-1-1H11.6c-0.6,0-1,0.5-1,1v22.9
			C10.6,30.1,11,30.6,11.6,30.6z"/>
	</g>
	<g id="Grupo_26743" transform="translate(26.438 40.163)">
		<path id="Trazado_26108" class="st2" d="M10.6,5.6v21.3h58.2l5.6-10.6L68.8,5.6L10.6,5.6z"/>
	</g>
	<g id="Grupo_26744" transform="translate(26.438 3.324)">
		<path id="Trazado_26109" class="st3" d="M10.6,26.9h58.2l5.6-10.6L68.8,5.6H10.6V26.9z"/>
	</g>
	<g id="Grupo_26745" transform="translate(1.488 1.488)">
		<path id="Trazado_26110" class="st1" d="M35.5,28.7V6.6c0-0.6-0.5-1-1-1H11.6c-0.6,0-1,0.5-1,1c0,0,0,0,0,0v22.9c0,0.6,0.5,1,1,1
			h22.9c0.6,0,1-0.5,1-1L35.5,28.7z"/>
	</g>
	<g id="Grupo_26746" transform="translate(18.171 1.488)">
		<path id="Trazado_26111" class="st4" d="M11.6,7.4v22.1c0,0.6-0.5,1-1,1h7.2c0.6,0,1-0.5,1-1V6.6c0-0.6-0.5-1-1-1h-7.2
			c0.6,0,1,0.5,1,1L11.6,7.4z"/>
	</g>
	<g id="Grupo_26747" transform="translate(18.171 38.327)">
		<path id="Trazado_26112" class="st4" d="M17.8,5.6h-7.2c0.6,0,1,0.5,1,1v22.9c0,0.6-0.5,1-1,1h7.2c0.6,0,1-0.5,1-1V6.6
			C18.8,6.1,18.4,5.6,17.8,5.6z"/>
	</g>
	<g id="Grupo_26748" transform="translate(18.171 75.172)">
		<path id="Trazado_26113" class="st4" d="M17.8,5.6h-7.2c0.6,0,1,0.5,1,1v22.9c0,0.6-0.5,1-1,1h7.2c0.6,0,1-0.5,1-1V6.6
			C18.8,6.1,18.4,5.6,17.8,5.6z"/>
	</g>
	<g id="Grupo_26749" transform="translate(75.586 3.324)">
		<path id="Trazado_26114" class="st5" d="M10.6,5.6c1.4,3.9,2.1,7.9,2.1,12c0,3.1-0.4,6.2-1.2,9.3h8.2l5.6-10.6L19.6,5.6L10.6,5.6
			L10.6,5.6z"/>
	</g>
	<g id="Grupo_26750" transform="translate(75.586 40.163)">
		<path id="Trazado_26115" class="st6" d="M10.6,5.6c1.4,3.9,2.1,7.9,2.1,12c0,3.1-0.4,6.2-1.2,9.3h8.2l5.6-10.6L19.6,5.6L10.6,5.6z
			"/>
	</g>
	<g id="Grupo_26751" transform="translate(75.586 77.008)">
		<path id="Trazado_26116" class="st7" d="M10.6,5.6c1.4,3.9,2.1,7.9,2.1,12c0,3.1-0.4,6.2-1.2,9.3h8.2l5.6-10.6L19.6,5.6L10.6,5.6
			L10.6,5.6z"/>
	</g>
	<g id="Grupo_26752" transform="translate(0 0)">
		<path id="Trazado_26117" class="st8" d="M13.1,33.5H36c1.1,0,2.1-0.8,2.4-1.8h56.8c0.6,0,1.1-0.3,1.3-0.8l5.6-10.6
			c0.2-0.4,0.2-0.9,0-1.4L96.5,8.2c-0.3-0.5-0.8-0.8-1.3-0.8H70.5c-0.8,0-1.5,0.7-1.5,1.5c0,0.8,0.7,1.5,1.5,1.5h23.8l4.8,9.2
			l-4.8,9.1H38.5V10.4h25c0.8,0,1.5-0.7,1.5-1.5s-0.7-1.5-1.5-1.5l0,0H38.4c-0.3-1.1-1.3-1.8-2.4-1.8H13.1c-1.4,0-2.5,1.1-2.5,2.5
			V31C10.6,32.4,11.7,33.5,13.1,33.5z M13.5,8.6h22v22h-22L13.5,8.6z"/>
		<path id="Trazado_26118" class="st8" d="M96.5,45.1c-0.3-0.5-0.8-0.8-1.3-0.8H38.4c-0.3-1.1-1.3-1.8-2.4-1.8H13.1
			c-1.4,0-2.5,1.1-2.5,2.5v22.9c0,1.4,1.1,2.5,2.5,2.5H36c1.1,0,2.1-0.8,2.4-1.8h56.8c0.6,0,1.1-0.3,1.3-0.8l5.6-10.6
			c0.2-0.4,0.2-0.9,0-1.4L96.5,45.1z M35.5,67.4h-22v-22h22V67.4z M94.3,65.6H38.5V47.3h55.8l4.8,9.2L94.3,65.6z"/>
		<path id="Trazado_26119" class="st8" d="M25.7,12.6h-2.3c-0.8,0-1.5,0.7-1.5,1.5c0,0.8,0.7,1.5,1.5,1.5h0.9V25
			c0,0.8,0.7,1.5,1.5,1.5c0.8,0,1.5-0.7,1.5-1.5v-11C27.2,13.3,26.5,12.6,25.7,12.6z"/>
		<path id="Trazado_26120" class="st8" d="M27.5,60.5c-0.9,0-1.9,0-2.8,0c0.6-0.8,1.3-1.8,2.3-3.2c0.6-0.9,1.1-1.8,1.4-2.9
			c0-0.1,0-0.1,0-0.2l0.1-0.4c0-0.1,0-0.1,0-0.2c0-2.4-1.9-4.3-4.3-4.3c-2,0-3.8,1.4-4.2,3.4c-0.2,0.8,0.4,1.6,1.2,1.7
			s1.6-0.4,1.7-1.2c0.1-0.7,0.8-1.2,1.6-1c0.6,0.1,1,0.6,1,1.2l0,0.2c-0.2,0.6-0.5,1.3-0.9,1.8c-1.7,2.5-2.8,3.8-3.3,4.6
			c-0.7,0.9-1.1,1.4-0.8,2.2c0.1,0.5,0.5,0.9,1,1c0.8,0.2,1.7,0.2,2.5,0.1c0.8,0,2,0,3.6,0c0.8,0,1.5-0.7,1.5-1.5
			C29,61.1,28.3,60.5,27.5,60.5L27.5,60.5z"/>
		<path id="Trazado_26121" class="st8" d="M24.5,86.2c-2,0-3.8,1.5-4.2,3.5c-0.2,0.8,0.4,1.6,1.2,1.8s1.6-0.4,1.8-1.2
			c0.1-0.7,0.8-1.2,1.5-1c0.7,0.1,1.2,0.8,1,1.5c-0.1,0.6-0.7,1.1-1.3,1.1c-0.8,0-1.5,0.7-1.5,1.5s0.7,1.5,1.5,1.5
			c0.7,0,1.3,0.6,1.3,1.3s-0.6,1.3-1.3,1.3c-0.6,0-1.2-0.5-1.3-1.1c0-0.1,0-0.1,0-0.2c0-0.8-0.7-1.5-1.5-1.5c-0.8,0-1.5,0.7-1.5,1.5
			c0,0.2,0,0.4,0,0.6c0.3,2.3,2.5,4,4.8,3.7c2.3-0.3,4-2.5,3.7-4.8c-0.1-0.8-0.5-1.6-1-2.2c1.6-1.8,1.4-4.5-0.4-6.1
			C26.5,86.5,25.5,86.2,24.5,86.2L24.5,86.2z"/>
		<path id="Trazado_26122" class="st8" d="M45.2,17.5h9.2c0.8,0,1.5-0.7,1.5-1.5c0-0.8-0.7-1.5-1.5-1.5l0,0h-9.2
			c-0.8,0-1.5,0.7-1.5,1.5C43.7,16.9,44.3,17.5,45.2,17.5z"/>
		<path id="Trazado_26123" class="st8" d="M45.2,24.8h18.7c0.8,0,1.5-0.7,1.5-1.5c0-0.8-0.7-1.5-1.5-1.5H45.2
			c-0.8,0-1.5,0.7-1.5,1.5C43.7,24.2,44.3,24.8,45.2,24.8z"/>
		<path id="Trazado_26124" class="st8" d="M45.2,54.1h9.2c0.8,0,1.5-0.7,1.5-1.5c0-0.8-0.7-1.5-1.5-1.5h-9.2c-0.8,0-1.5,0.7-1.5,1.5
			C43.7,53.4,44.3,54.1,45.2,54.1z"/>
		<path id="Trazado_26125" class="st8" d="M63.8,58.5H45.2c-0.8,0-1.5,0.7-1.5,1.5s0.7,1.5,1.5,1.5h18.7c0.8,0,1.5-0.7,1.5-1.5
			S64.6,58.5,63.8,58.5L63.8,58.5z"/>
		<path id="Trazado_26126" class="st8" d="M45.2,91.2h9.2c0.8,0,1.5-0.7,1.5-1.5s-0.7-1.5-1.5-1.5h-9.2c-0.8,0-1.5,0.7-1.5,1.5
			S44.3,91.2,45.2,91.2z"/>
		<path id="Trazado_26127" class="st8" d="M45.2,98.5h18.7c0.8,0,1.5-0.7,1.5-1.5s-0.7-1.5-1.5-1.5H45.2c-0.8,0-1.5,0.7-1.5,1.5
			S44.3,98.5,45.2,98.5z"/>
		<path id="Trazado_26128" class="st8" d="M96.5,81.9c-0.3-0.5-0.8-0.8-1.3-0.8H70.5c-0.8,0-1.5,0.7-1.5,1.5s0.7,1.5,1.5,1.5l0,0
			h23.8l4.8,9.2l-4.8,9.1H38.5V84.1h25c0.8,0,1.5-0.7,1.5-1.5s-0.7-1.5-1.5-1.5H38.4c-0.3-1.1-1.3-1.8-2.4-1.8H13.1
			c-1.4,0-2.5,1.1-2.5,2.5v22.9c0,1.4,1.1,2.5,2.5,2.5H36c1.1,0,2.1-0.8,2.4-1.8h56.8c0.6,0,1.1-0.3,1.3-0.8l5.6-10.6
			c0.2-0.4,0.2-0.9,0-1.4L96.5,81.9z M35.5,104.2h-22v-22h22V104.2z"/>
	</g>
</g>
</svg>
