<svg xmlns="http://www.w3.org/2000/svg" width="373" height="220" viewBox="0 0 373 220">
  <g id="Grupo_31412" data-name="Grupo 31412" transform="translate(-179 -3834)">
    <rect id="Rectángulo_6150" data-name="Rectángulo 6150" width="373" height="220" rx="10" transform="translate(179 3834)" fill="#e3edf8"/>
    <g id="Grupo_30055" data-name="Grupo 30055" transform="translate(42.559 3646.709)">
      <g id="Grupo_29884" data-name="Grupo 29884" transform="translate(208.442 296.294)">
        <g id="Grupo_29882" data-name="Grupo 29882">
          <g id="Grupo_29880" data-name="Grupo 29880">
            <g id="Grupo_29879" data-name="Grupo 29879">
              <path id="Trazado_28911" data-name="Trazado 28911" d="M208.442,317.069l2.393,11.306,2.749-2.75,4.86,4.861,3.783-3.781-4.862-4.86,2.383-2.382Z" transform="translate(-208.442 -317.069)" fill="#f4661e"/>
            </g>
          </g>
          <g id="Grupo_29881" data-name="Grupo 29881" transform="translate(16.808 6.878)">
            <path id="Trazado_28912" data-name="Trazado 28912" d="M267,332.329h-6.106c-2.25,0-3.378-1.467-4.285-2.647-.871-1.132-1.417-1.773-2.511-1.773s-1.651.621-2.521,1.717c-.906,1.142-2.034,2.563-4.273,2.563s-3.369-1.429-4.276-2.578c-.87-1.1-1.417-1.726-2.519-1.726s-1.639.645-2.509,1.783c-.907,1.186-2.035,2.661-4.287,2.661h-4.305v-2.238h4.305c1.093,0,1.639-.644,2.509-1.782.907-1.186,2.035-2.662,4.287-2.662s3.369,1.429,4.276,2.578c.87,1.1,1.417,1.726,2.519,1.726s1.651-.621,2.521-1.716c.906-1.142,2.034-2.564,4.273-2.564s3.378,1.468,4.285,2.648c.871,1.132,1.417,1.773,2.511,1.773H267Z" transform="translate(-229.407 -325.647)" fill="#231f20"/>
          </g>
        </g>
        <g id="Grupo_29883" data-name="Grupo 29883" transform="translate(56.639 11.322)">
          <rect id="Rectángulo_6151" data-name="Rectángulo 6151" width="3.58" height="2.238" fill="#231f20"/>
        </g>
      </g>
      <g id="Grupo_29890" data-name="Grupo 29890" transform="translate(366.671 262.941)">
        <g id="Grupo_29888" data-name="Grupo 29888" transform="translate(5.818)">
          <g id="Grupo_29886" data-name="Grupo 29886" transform="translate(40.415)">
            <g id="Grupo_29885" data-name="Grupo 29885">
              <path id="Trazado_28913" data-name="Trazado 28913" d="M477.254,275.467l-2.393,11.306-2.749-2.749-4.86,4.861-3.783-3.781,4.862-4.86-2.383-2.382Z" transform="translate(-463.469 -275.467)" fill="#f4661e"/>
            </g>
          </g>
          <g id="Grupo_29887" data-name="Grupo 29887" transform="translate(0 6.768)">
            <path id="Trazado_28914" data-name="Trazado 28914" d="M432.555,290.506c-2.245,0-3.373-1.448-4.28-2.61-.87-1.117-1.416-1.749-2.515-1.749s-1.646.629-2.517,1.742c-.907,1.158-2.036,2.6-4.28,2.6h-5.9V288.25h5.9c1.1,0,1.647-.629,2.517-1.741.907-1.158,2.035-2.6,4.279-2.6s3.374,1.448,4.28,2.611c.87,1.117,1.416,1.749,2.514,1.749s1.645-.631,2.516-1.748c.906-1.162,2.034-2.609,4.279-2.609s3.373,1.441,4.28,2.6c.87,1.111,1.417,1.74,2.517,1.74h4.507v2.238h-4.507c-2.243,0-3.372-1.441-4.279-2.6-.871-1.111-1.417-1.741-2.517-1.741s-1.644.632-2.515,1.748C435.928,289.06,434.8,290.506,432.555,290.506Z" transform="translate(-413.059 -283.909)" fill="#231f20"/>
          </g>
        </g>
        <g id="Grupo_29889" data-name="Grupo 29889" transform="translate(0 11.11)">
          <rect id="Rectángulo_6152" data-name="Rectángulo 6152" width="3.58" height="2.238" fill="#231f20"/>
        </g>
      </g>
      <g id="Grupo_29898" data-name="Grupo 29898" transform="translate(244.047 243.618)">
        <g id="Grupo_29891" data-name="Grupo 29891" transform="translate(1.012 1.122)">
          <path id="Trazado_28915" data-name="Trazado 28915" d="M398.4,253.853c0-.8-.286-1.087-1.087-1.087H255.927c-.8,0-1.813.287-1.813,1.087V337.6H398.4Z" transform="translate(-254.114 -252.766)" fill="#6d6e71"/>
        </g>
        <g id="Grupo_29892" data-name="Grupo 29892" transform="translate(9.398 8.951)">
          <rect id="Rectángulo_6153" data-name="Rectángulo 6153" width="127.547" height="77.423" fill="#f1f2f2"/>
        </g>
        <g id="Grupo_29893" data-name="Grupo 29893" transform="translate(55.047 113.226)">
          <rect id="Rectángulo_6154" data-name="Rectángulo 6154" width="35.355" height="18.796" fill="#bcbec0"/>
        </g>
        <g id="Grupo_29894" data-name="Grupo 29894" transform="translate(1.011 85.956)">
          <rect id="Rectángulo_6155" data-name="Rectángulo 6155" width="144.289" height="26.828" fill="#e6e7e8"/>
        </g>
        <g id="Grupo_29895" data-name="Grupo 29895">
          <path id="Trazado_28916" data-name="Trazado 28916" d="M398.076,365.487H253.971a1.119,1.119,0,0,1-1.119-1.118V253.939a2.492,2.492,0,0,1,2.461-2.573H396.7a2.507,2.507,0,0,1,2.493,2.573v110.43A1.119,1.119,0,0,1,398.076,365.487ZM255.09,363.249H396.958V253.939c0-.034-.007-.335-.255-.335H255.313c-.208,0-.224.257-.224.335Z" transform="translate(-252.852 -251.366)" fill="#231f20"/>
        </g>
        <g id="Grupo_29896" data-name="Grupo 29896" transform="translate(49.229 132.022)">
          <rect id="Rectángulo_6156" data-name="Rectángulo 6156" width="46.991" height="5.818" fill="#e6e7e8"/>
        </g>
        <g id="Grupo_29897" data-name="Grupo 29897" transform="translate(42.068 136.945)">
          <rect id="Rectángulo_6157" data-name="Rectángulo 6157" width="61.76" height="2.238" fill="#231f20"/>
        </g>
      </g>
      <g id="Grupo_29913" data-name="Grupo 29913" transform="translate(229.506 284.126)">
        <g id="Grupo_29912" data-name="Grupo 29912">
          <g id="Grupo_29904" data-name="Grupo 29904" transform="translate(1.087 1.088)">
            <g id="Grupo_29899" data-name="Grupo 29899" transform="translate(159.996)">
              <rect id="Rectángulo_6158" data-name="Rectángulo 6158" width="11.048" height="8.67" fill="#31c0d8"/>
            </g>
            <g id="Grupo_29900" data-name="Grupo 29900" transform="translate(153.836)">
              <path id="Trazado_28917" data-name="Trazado 28917" d="M427.953,307.871v4.046h6.159v-8.67h-6.159Z" transform="translate(-427.953 -303.248)" fill="#f1f2f2"/>
            </g>
            <g id="Grupo_29901" data-name="Grupo 29901">
              <path id="Trazado_28918" data-name="Trazado 28918" d="M236.071,307.582l13.177,4.335v-8.67Z" transform="translate(-236.071 -303.248)" fill="#e6e7e8"/>
            </g>
            <g id="Grupo_29902" data-name="Grupo 29902" transform="translate(13.177 4.624)">
              <path id="Trazado_28919" data-name="Trazado 28919" d="M252.507,309.015v4.046H393.167v-4.046H252.507Z" transform="translate(-252.507 -309.015)" fill="#ffd248"/>
            </g>
            <g id="Grupo_29903" data-name="Grupo 29903" transform="translate(13.177)">
              <path id="Trazado_28920" data-name="Trazado 28920" d="M252.507,303.248v4.624H393.167v-4.624Z" transform="translate(-252.507 -303.248)" fill="#ffd248"/>
            </g>
          </g>
          <g id="Grupo_29911" data-name="Grupo 29911">
            <g id="Grupo_29905" data-name="Grupo 29905" transform="translate(14.265 0)">
              <rect id="Rectángulo_6159" data-name="Rectángulo 6159" width="140.659" height="2.175" fill="#231f20"/>
            </g>
            <g id="Grupo_29906" data-name="Grupo 29906" transform="translate(14.265 8.67)">
              <rect id="Rectángulo_6160" data-name="Rectángulo 6160" width="140.659" height="2.175" fill="#231f20"/>
            </g>
            <g id="Grupo_29907" data-name="Grupo 29907" transform="translate(14.778 4.624)">
              <rect id="Rectángulo_6161" data-name="Rectángulo 6161" width="140.659" height="2.175" fill="#231f20"/>
            </g>
            <g id="Grupo_29908" data-name="Grupo 29908" transform="translate(153.837 0)">
              <path id="Trazado_28921" data-name="Trazado 28921" d="M433.844,312.736h-6.16a1.087,1.087,0,0,1-1.087-1.088v-8.669a1.087,1.087,0,0,1,1.087-1.088h6.16v2.175h-5.072v6.495h5.072Z" transform="translate(-426.597 -301.891)" fill="#231f20"/>
            </g>
            <g id="Grupo_29909" data-name="Grupo 29909" transform="translate(159.995 0)">
              <path id="Trazado_28922" data-name="Trazado 28922" d="M446.415,312.736H435.367a1.087,1.087,0,0,1-1.088-1.088v-8.669a1.087,1.087,0,0,1,1.088-1.088h11.048a1.088,1.088,0,0,1,1.088,1.088v8.669A1.088,1.088,0,0,1,446.415,312.736Zm-9.961-2.175h8.873v-6.495h-8.873Z" transform="translate(-434.279 -301.891)" fill="#231f20"/>
            </g>
            <g id="Grupo_29910" data-name="Grupo 29910">
              <path id="Trazado_28923" data-name="Trazado 28923" d="M248.979,312.736a1.072,1.072,0,0,1-.339-.055l-13.178-4.335a1.088,1.088,0,0,1,0-2.066l13.178-4.335a1.088,1.088,0,0,1,1.427,1.033v8.669a1.088,1.088,0,0,1-1.088,1.088Zm-9.7-5.423,8.61,2.833v-5.664Z" transform="translate(-234.715 -301.891)" fill="#231f20"/>
            </g>
          </g>
        </g>
      </g>
      <g id="Grupo_29921" data-name="Grupo 29921" transform="translate(262.097 228.427)">
        <g id="Grupo_29920" data-name="Grupo 29920">
          <g id="Grupo_29916" data-name="Grupo 29916" transform="translate(1.087 1.088)">
            <g id="Grupo_29914" data-name="Grupo 29914">
              <rect id="Rectángulo_6162" data-name="Rectángulo 6162" width="108.036" height="7.976" fill="#ffd248"/>
            </g>
            <g id="Grupo_29915" data-name="Grupo 29915" transform="translate(0 7.976)">
              <rect id="Rectángulo_6163" data-name="Rectángulo 6163" width="108.036" height="92.084" fill="#fff"/>
            </g>
          </g>
          <g id="Grupo_29919" data-name="Grupo 29919">
            <g id="Grupo_29917" data-name="Grupo 29917">
              <path id="Trazado_28924" data-name="Trazado 28924" d="M385.578,241.48H383.4v-6.888H277.542v6.888h-2.175V233.5a1.087,1.087,0,0,1,1.087-1.088H384.49a1.087,1.087,0,0,1,1.088,1.088Z" transform="translate(-275.367 -232.417)" fill="#231f20"/>
            </g>
            <g id="Grupo_29918" data-name="Grupo 29918" transform="translate(0 7.976)">
              <path id="Trazado_28925" data-name="Trazado 28925" d="M385.578,335.537H383.4v-91H277.542v91h-2.175V243.453a1.088,1.088,0,0,1,1.087-1.088H384.49a1.088,1.088,0,0,1,1.088,1.088Z" transform="translate(-275.367 -242.365)" fill="#231f20"/>
            </g>
          </g>
        </g>
      </g>
      <g id="Grupo_29922" data-name="Grupo 29922" transform="translate(267.766 231.983)">
        <rect id="Rectángulo_6164" data-name="Rectángulo 6164" width="3.58" height="2.238" fill="#231f20"/>
      </g>
      <g id="Grupo_29923" data-name="Grupo 29923" transform="translate(273.584 231.983)">
        <rect id="Rectángulo_6165" data-name="Rectángulo 6165" width="3.58" height="2.238" fill="#231f20"/>
      </g>
      <g id="Grupo_29924" data-name="Grupo 29924" transform="translate(363.538 231.983)">
        <rect id="Rectángulo_6166" data-name="Rectángulo 6166" width="3.58" height="2.238" fill="#231f20"/>
      </g>
      <g id="Grupo_29929" data-name="Grupo 29929" transform="translate(267.318 240.933)">
        <g id="Grupo_29925" data-name="Grupo 29925">
          <rect id="Rectángulo_6167" data-name="Rectángulo 6167" width="99.352" height="31.775" fill="#31c0d8"/>
        </g>
        <g id="Grupo_29926" data-name="Grupo 29926" transform="translate(47.886 25.957)">
          <rect id="Rectángulo_6168" data-name="Rectángulo 6168" width="3.58" height="2.238" fill="#231f20"/>
        </g>
        <g id="Grupo_29927" data-name="Grupo 29927" transform="translate(40.278 25.957)">
          <rect id="Rectángulo_6169" data-name="Rectángulo 6169" width="4.028" height="2.238" fill="#231f20"/>
        </g>
        <g id="Grupo_29928" data-name="Grupo 29928" transform="translate(55.047 25.957)">
          <rect id="Rectángulo_6170" data-name="Rectángulo 6170" width="3.58" height="2.238" fill="#231f20"/>
        </g>
      </g>
      <g id="Grupo_29930" data-name="Grupo 29930" transform="translate(267.318 275.393)">
        <rect id="Rectángulo_6171" data-name="Rectángulo 6171" width="47.886" height="22.824" fill="#bcbec0"/>
      </g>
      <g id="Grupo_29931" data-name="Grupo 29931" transform="translate(318.785 275.393)">
        <rect id="Rectángulo_6172" data-name="Rectángulo 6172" width="47.886" height="22.824" fill="#bcbec0"/>
      </g>
      <g id="Grupo_29932" data-name="Grupo 29932" transform="translate(267.318 301.798)">
        <rect id="Rectángulo_6173" data-name="Rectángulo 6173" width="35.355" height="2.238" fill="#231f20"/>
      </g>
      <g id="Grupo_29933" data-name="Grupo 29933" transform="translate(267.318 308.958)">
        <rect id="Rectángulo_6174" data-name="Rectángulo 6174" width="44.753" height="2.238" fill="#231f20"/>
      </g>
      <g id="Grupo_29934" data-name="Grupo 29934" transform="translate(267.318 316.119)">
        <rect id="Rectángulo_6175" data-name="Rectángulo 6175" width="44.753" height="2.238" fill="#231f20"/>
      </g>
      <g id="Grupo_29935" data-name="Grupo 29935" transform="translate(267.318 323.279)">
        <rect id="Rectángulo_6176" data-name="Rectángulo 6176" width="44.753" height="2.238" fill="#231f20"/>
      </g>
      <g id="Grupo_29936" data-name="Grupo 29936" transform="translate(307.149 301.798)">
        <rect id="Rectángulo_6177" data-name="Rectángulo 6177" width="4.923" height="2.238" fill="#231f20"/>
      </g>
      <g id="Grupo_29937" data-name="Grupo 29937" transform="translate(318.785 301.798)">
        <rect id="Rectángulo_6178" data-name="Rectángulo 6178" width="35.355" height="2.238" fill="#231f20"/>
      </g>
      <g id="Grupo_29938" data-name="Grupo 29938" transform="translate(318.785 308.958)">
        <rect id="Rectángulo_6179" data-name="Rectángulo 6179" width="35.355" height="2.238" fill="#231f20"/>
      </g>
      <g id="Grupo_29939" data-name="Grupo 29939" transform="translate(318.785 316.119)">
        <rect id="Rectángulo_6180" data-name="Rectángulo 6180" width="35.355" height="2.238" fill="#231f20"/>
      </g>
      <g id="Grupo_29940" data-name="Grupo 29940" transform="translate(318.785 323.279)">
        <rect id="Rectángulo_6181" data-name="Rectángulo 6181" width="35.355" height="2.238" fill="#231f20"/>
      </g>
      <g id="Grupo_29941" data-name="Grupo 29941" transform="translate(358.615 301.798)">
        <rect id="Rectángulo_6182" data-name="Rectángulo 6182" width="4.923" height="2.238" fill="#231f20"/>
      </g>
      <g id="Grupo_29952" data-name="Grupo 29952" transform="translate(358.29 308.185)">
        <g id="Grupo_29951" data-name="Grupo 29951">
          <g id="Grupo_29945" data-name="Grupo 29945" transform="translate(1.087 1.087)">
            <g id="Grupo_29942" data-name="Grupo 29942">
              <path id="Trazado_28926" data-name="Trazado 28926" d="M439.485,335.431v8.7H396.706v-8.7a2.172,2.172,0,0,1,2.175-2.175H437.31A2.172,2.172,0,0,1,439.485,335.431Z" transform="translate(-396.706 -333.256)" fill="#bcbec0"/>
            </g>
            <g id="Grupo_29943" data-name="Grupo 29943" transform="translate(0 58.731)">
              <path id="Trazado_28927" data-name="Trazado 28927" d="M439.485,406.512v10.876a2.172,2.172,0,0,1-2.175,2.175H398.881a2.172,2.172,0,0,1-2.175-2.175V406.512Z" transform="translate(-396.706 -406.512)" fill="#bcbec0"/>
            </g>
            <g id="Grupo_29944" data-name="Grupo 29944" transform="translate(0 10.877)">
              <rect id="Rectángulo_6183" data-name="Rectángulo 6183" width="42.779" height="47.855" fill="#f1f2f2"/>
            </g>
          </g>
          <g id="Grupo_29950" data-name="Grupo 29950">
            <g id="Grupo_29946" data-name="Grupo 29946" transform="translate(0 59.819)">
              <path id="Trazado_28928" data-name="Trazado 28928" d="M437.041,420.651H398.612a3.266,3.266,0,0,1-3.262-3.263V406.513h2.175v10.875a1.088,1.088,0,0,0,1.087,1.087h38.429a1.089,1.089,0,0,0,1.088-1.087V406.513H440.3v10.875A3.267,3.267,0,0,1,437.041,420.651Z" transform="translate(-395.35 -406.513)" fill="#231f20"/>
            </g>
            <g id="Grupo_29947" data-name="Grupo 29947" transform="translate(0)">
              <path id="Trazado_28929" data-name="Trazado 28929" d="M440.3,343.864h-2.175v-8.7a1.089,1.089,0,0,0-1.088-1.088H398.612a1.088,1.088,0,0,0-1.087,1.088v8.7H395.35v-8.7a3.266,3.266,0,0,1,3.262-3.263h38.429a3.266,3.266,0,0,1,3.263,3.263Z" transform="translate(-395.35 -331.9)" fill="#231f20"/>
            </g>
            <g id="Grupo_29948" data-name="Grupo 29948" transform="translate(42.779 11.964)">
              <rect id="Rectángulo_6184" data-name="Rectángulo 6184" width="2.175" height="47.855" fill="#231f20"/>
            </g>
            <g id="Grupo_29949" data-name="Grupo 29949" transform="translate(0 11.964)">
              <rect id="Rectángulo_6185" data-name="Rectángulo 6185" width="2.175" height="47.855" fill="#231f20"/>
            </g>
          </g>
        </g>
      </g>
      <g id="Grupo_29953" data-name="Grupo 29953" transform="translate(362.195 321.937)">
        <rect id="Rectángulo_6186" data-name="Rectángulo 6186" width="37.145" height="12.978" fill="#31c0d8"/>
      </g>
      <g id="Grupo_29954" data-name="Grupo 29954" transform="translate(362.195 336.258)">
        <rect id="Rectángulo_6187" data-name="Rectángulo 6187" width="37.145" height="19.244" fill="#bcbec0"/>
      </g>
      <g id="Grupo_29958" data-name="Grupo 29958" transform="translate(372.936 329.992)">
        <g id="Grupo_29955" data-name="Grupo 29955" transform="translate(5.818)">
          <rect id="Rectángulo_6188" data-name="Rectángulo 6188" width="3.58" height="2.238" fill="#231f20"/>
        </g>
        <g id="Grupo_29956" data-name="Grupo 29956">
          <rect id="Rectángulo_6189" data-name="Rectángulo 6189" width="3.58" height="2.238" fill="#231f20"/>
        </g>
        <g id="Grupo_29957" data-name="Grupo 29957" transform="translate(11.636)">
          <rect id="Rectángulo_6190" data-name="Rectángulo 6190" width="3.58" height="2.238" fill="#231f20"/>
        </g>
      </g>
      <g id="Grupo_29959" data-name="Grupo 29959" transform="translate(362.195 358.187)">
        <rect id="Rectángulo_6191" data-name="Rectángulo 6191" width="23.272" height="2.238" fill="#231f20"/>
      </g>
      <g id="Grupo_29960" data-name="Grupo 29960" transform="translate(362.195 362.662)">
        <rect id="Rectángulo_6192" data-name="Rectángulo 6192" width="37.145" height="2.238" fill="#231f20"/>
      </g>
      <g id="Grupo_29961" data-name="Grupo 29961" transform="translate(388.152 358.187)">
        <rect id="Rectángulo_6193" data-name="Rectángulo 6193" width="5.37" height="2.238" fill="#231f20"/>
      </g>
      <g id="Grupo_29965" data-name="Grupo 29965" transform="translate(396.208 255.254)">
        <g id="Grupo_29962" data-name="Grupo 29962">
          <rect id="Rectángulo_6194" data-name="Rectángulo 6194" width="3.133" height="2.238" fill="#231f20"/>
        </g>
        <g id="Grupo_29963" data-name="Grupo 29963" transform="translate(5.818)">
          <rect id="Rectángulo_6195" data-name="Rectángulo 6195" width="3.133" height="2.238" fill="#231f20"/>
        </g>
        <g id="Grupo_29964" data-name="Grupo 29964" transform="translate(11.636)">
          <rect id="Rectángulo_6196" data-name="Rectángulo 6196" width="2.685" height="2.238" fill="#231f20"/>
        </g>
      </g>
      <g id="Grupo_29969" data-name="Grupo 29969" transform="translate(222.118 321.937)">
        <g id="Grupo_29966" data-name="Grupo 29966">
          <rect id="Rectángulo_6197" data-name="Rectángulo 6197" width="3.133" height="2.238" fill="#231f20"/>
        </g>
        <g id="Grupo_29967" data-name="Grupo 29967" transform="translate(5.818)">
          <rect id="Rectángulo_6198" data-name="Rectángulo 6198" width="3.133" height="2.238" fill="#231f20"/>
        </g>
        <g id="Grupo_29968" data-name="Grupo 29968" transform="translate(11.636)">
          <rect id="Rectángulo_6199" data-name="Rectángulo 6199" width="3.133" height="2.238" fill="#231f20"/>
        </g>
      </g>
      <g id="Grupo_29986" data-name="Grupo 29986" transform="translate(235.096 364.9)">
        <g id="Grupo_29984" data-name="Grupo 29984">
          <g id="Grupo_29970" data-name="Grupo 29970">
            <rect id="Rectángulo_6200" data-name="Rectángulo 6200" width="3.133" height="2.238" fill="#231f20"/>
          </g>
          <g id="Grupo_29971" data-name="Grupo 29971" transform="translate(5.37)">
            <rect id="Rectángulo_6201" data-name="Rectángulo 6201" width="2.685" height="2.238" fill="#231f20"/>
          </g>
          <g id="Grupo_29972" data-name="Grupo 29972" transform="translate(10.293)">
            <rect id="Rectángulo_6202" data-name="Rectángulo 6202" width="3.133" height="2.238" fill="#231f20"/>
          </g>
          <g id="Grupo_29973" data-name="Grupo 29973" transform="translate(5.37 14.321)">
            <rect id="Rectángulo_6203" data-name="Rectángulo 6203" width="2.685" height="2.238" fill="#231f20"/>
          </g>
          <g id="Grupo_29974" data-name="Grupo 29974" transform="translate(10.293 14.321)">
            <rect id="Rectángulo_6204" data-name="Rectángulo 6204" width="3.133" height="2.238" fill="#231f20"/>
          </g>
          <g id="Grupo_29975" data-name="Grupo 29975" transform="translate(15.216)">
            <rect id="Rectángulo_6205" data-name="Rectángulo 6205" width="3.133" height="2.238" fill="#231f20"/>
          </g>
          <g id="Grupo_29976" data-name="Grupo 29976" transform="translate(0 3.58)">
            <rect id="Rectángulo_6206" data-name="Rectángulo 6206" width="3.133" height="2.238" fill="#231f20"/>
          </g>
          <g id="Grupo_29977" data-name="Grupo 29977" transform="translate(15.216 3.58)">
            <rect id="Rectángulo_6207" data-name="Rectángulo 6207" width="3.133" height="2.238" fill="#231f20"/>
          </g>
          <g id="Grupo_29978" data-name="Grupo 29978" transform="translate(0 7.161)">
            <rect id="Rectángulo_6208" data-name="Rectángulo 6208" width="3.133" height="2.238" fill="#231f20"/>
          </g>
          <g id="Grupo_29979" data-name="Grupo 29979" transform="translate(15.216 7.161)">
            <rect id="Rectángulo_6209" data-name="Rectángulo 6209" width="3.133" height="2.238" fill="#231f20"/>
          </g>
          <g id="Grupo_29980" data-name="Grupo 29980" transform="translate(0 10.741)">
            <rect id="Rectángulo_6210" data-name="Rectángulo 6210" width="3.133" height="2.238" fill="#231f20"/>
          </g>
          <g id="Grupo_29981" data-name="Grupo 29981" transform="translate(15.216 10.741)">
            <rect id="Rectángulo_6211" data-name="Rectángulo 6211" width="3.133" height="2.238" fill="#231f20"/>
          </g>
          <g id="Grupo_29982" data-name="Grupo 29982" transform="translate(0 14.321)">
            <rect id="Rectángulo_6212" data-name="Rectángulo 6212" width="3.133" height="2.238" fill="#231f20"/>
          </g>
          <g id="Grupo_29983" data-name="Grupo 29983" transform="translate(15.216 14.321)">
            <rect id="Rectángulo_6213" data-name="Rectángulo 6213" width="3.133" height="2.238" fill="#231f20"/>
          </g>
        </g>
        <g id="Grupo_29985" data-name="Grupo 29985" transform="translate(5.818 4.923)">
          <rect id="Rectángulo_6214" data-name="Rectángulo 6214" width="6.713" height="6.713" fill="#ffd248"/>
        </g>
      </g>
      <g id="Grupo_30003" data-name="Grupo 30003" transform="translate(380.992 219.004)">
        <g id="Grupo_30001" data-name="Grupo 30001">
          <g id="Grupo_29987" data-name="Grupo 29987">
            <rect id="Rectángulo_6215" data-name="Rectángulo 6215" width="3.133" height="2.238" fill="#231f20"/>
          </g>
          <g id="Grupo_29988" data-name="Grupo 29988" transform="translate(4.923)">
            <rect id="Rectángulo_6216" data-name="Rectángulo 6216" width="3.133" height="2.238" fill="#231f20"/>
          </g>
          <g id="Grupo_29989" data-name="Grupo 29989" transform="translate(10.293)">
            <rect id="Rectángulo_6217" data-name="Rectángulo 6217" width="2.685" height="2.238" fill="#231f20"/>
          </g>
          <g id="Grupo_29990" data-name="Grupo 29990" transform="translate(4.923 14.321)">
            <rect id="Rectángulo_6218" data-name="Rectángulo 6218" width="3.133" height="2.238" fill="#231f20"/>
          </g>
          <g id="Grupo_29991" data-name="Grupo 29991" transform="translate(10.293 14.321)">
            <rect id="Rectángulo_6219" data-name="Rectángulo 6219" width="2.685" height="2.238" fill="#231f20"/>
          </g>
          <g id="Grupo_29992" data-name="Grupo 29992" transform="translate(15.216)">
            <rect id="Rectángulo_6220" data-name="Rectángulo 6220" width="3.133" height="2.238" fill="#231f20"/>
          </g>
          <g id="Grupo_29993" data-name="Grupo 29993" transform="translate(0 3.58)">
            <rect id="Rectángulo_6221" data-name="Rectángulo 6221" width="3.133" height="2.238" fill="#231f20"/>
          </g>
          <g id="Grupo_29994" data-name="Grupo 29994" transform="translate(15.216 3.58)">
            <rect id="Rectángulo_6222" data-name="Rectángulo 6222" width="3.133" height="2.238" fill="#231f20"/>
          </g>
          <g id="Grupo_29995" data-name="Grupo 29995" transform="translate(0 7.161)">
            <rect id="Rectángulo_6223" data-name="Rectángulo 6223" width="3.133" height="2.238" fill="#231f20"/>
          </g>
          <g id="Grupo_29996" data-name="Grupo 29996" transform="translate(15.216 7.161)">
            <rect id="Rectángulo_6224" data-name="Rectángulo 6224" width="3.133" height="2.238" fill="#231f20"/>
          </g>
          <g id="Grupo_29997" data-name="Grupo 29997" transform="translate(0 10.741)">
            <rect id="Rectángulo_6225" data-name="Rectángulo 6225" width="3.133" height="2.238" fill="#231f20"/>
          </g>
          <g id="Grupo_29998" data-name="Grupo 29998" transform="translate(15.216 10.741)">
            <rect id="Rectángulo_6226" data-name="Rectángulo 6226" width="3.133" height="2.238" fill="#231f20"/>
          </g>
          <g id="Grupo_29999" data-name="Grupo 29999" transform="translate(0 14.321)">
            <rect id="Rectángulo_6227" data-name="Rectángulo 6227" width="3.133" height="2.238" fill="#231f20"/>
          </g>
          <g id="Grupo_30000" data-name="Grupo 30000" transform="translate(15.216 14.321)">
            <rect id="Rectángulo_6228" data-name="Rectángulo 6228" width="3.133" height="2.238" fill="#231f20"/>
          </g>
        </g>
        <g id="Grupo_30002" data-name="Grupo 30002" transform="translate(5.818 4.923)">
          <rect id="Rectángulo_6229" data-name="Rectángulo 6229" width="6.713" height="6.713" fill="#ffd248"/>
        </g>
      </g>
      <g id="Grupo_30008" data-name="Grupo 30008" transform="translate(410.529 298.665)">
        <g id="Grupo_30004" data-name="Grupo 30004">
          <rect id="Rectángulo_6230" data-name="Rectángulo 6230" width="4.028" height="2.238" fill="#231f20"/>
        </g>
        <g id="Grupo_30005" data-name="Grupo 30005" transform="translate(5.818)">
          <rect id="Rectángulo_6231" data-name="Rectángulo 6231" width="8.056" height="2.238" fill="#231f20"/>
        </g>
        <g id="Grupo_30006" data-name="Grupo 30006" transform="translate(0 4.923)">
          <rect id="Rectángulo_6232" data-name="Rectángulo 6232" width="4.028" height="2.238" fill="#231f20"/>
        </g>
        <g id="Grupo_30007" data-name="Grupo 30007" transform="translate(5.818 4.923)">
          <rect id="Rectángulo_6233" data-name="Rectángulo 6233" width="5.37" height="2.238" fill="#231f20"/>
        </g>
      </g>
      <g id="Grupo_30013" data-name="Grupo 30013" transform="translate(219.88 262.415)">
        <g id="Grupo_30009" data-name="Grupo 30009" transform="translate(10.293 4.923)">
          <rect id="Rectángulo_6234" data-name="Rectángulo 6234" width="3.58" height="2.238" fill="#231f20"/>
        </g>
        <g id="Grupo_30010" data-name="Grupo 30010" transform="translate(0 4.923)">
          <rect id="Rectángulo_6235" data-name="Rectángulo 6235" width="8.056" height="2.238" fill="#231f20"/>
        </g>
        <g id="Grupo_30011" data-name="Grupo 30011" transform="translate(10.293 0)">
          <rect id="Rectángulo_6236" data-name="Rectángulo 6236" width="3.58" height="2.238" fill="#231f20"/>
        </g>
        <g id="Grupo_30012" data-name="Grupo 30012" transform="translate(3.133 0)">
          <rect id="Rectángulo_6237" data-name="Rectángulo 6237" width="4.923" height="2.238" fill="#231f20"/>
        </g>
      </g>
      <g id="Grupo_30015" data-name="Grupo 30015" transform="translate(303.185 213.925)">
        <g id="Grupo_30014" data-name="Grupo 30014">
          <path id="Trazado_28930" data-name="Trazado 28930" d="M332.588,217.315a2.986,2.986,0,1,1-2.986-2.986A2.986,2.986,0,0,1,332.588,217.315Z" transform="translate(-326.616 -214.329)" fill="#bcbec0"/>
        </g>
      </g>
      <g id="Grupo_30017" data-name="Grupo 30017" transform="translate(420.646 327.036)">
        <g id="Grupo_30016" data-name="Grupo 30016">
          <path id="Trazado_28931" data-name="Trazado 28931" d="M479.1,358.4a2.986,2.986,0,1,1-2.986-2.986A2.985,2.985,0,0,1,479.1,358.4Z" transform="translate(-473.127 -355.414)" fill="#bcbec0"/>
        </g>
      </g>
      <g id="Grupo_30019" data-name="Grupo 30019" transform="translate(224.152 336.462)">
        <g id="Grupo_30018" data-name="Grupo 30018">
          <path id="Trazado_28932" data-name="Trazado 28932" d="M234.009,370.157a2.986,2.986,0,1,1-2.986-2.986A2.985,2.985,0,0,1,234.009,370.157Z" transform="translate(-228.037 -367.171)" fill="#ffd248"/>
        </g>
      </g>
      <g id="Grupo_30021" data-name="Grupo 30021" transform="translate(229.952 232.052)">
        <g id="Grupo_30020" data-name="Grupo 30020">
          <path id="Trazado_28933" data-name="Trazado 28933" d="M241.244,239.925a2.986,2.986,0,1,1-2.986-2.986A2.986,2.986,0,0,1,241.244,239.925Z" transform="translate(-235.272 -236.939)" fill="#31c0d8"/>
        </g>
      </g>
      <g id="Grupo_30023" data-name="Grupo 30023" transform="translate(415.571 240.027)">
        <g id="Grupo_30022" data-name="Grupo 30022">
          <path id="Trazado_28934" data-name="Trazado 28934" d="M472.768,249.873a2.986,2.986,0,1,1-2.986-2.986A2.985,2.985,0,0,1,472.768,249.873Z" transform="translate(-466.796 -246.887)" fill="#ffd248"/>
        </g>
      </g>
      <g id="Grupo_30028" data-name="Grupo 30028" transform="translate(325.05 212.291)">
        <g id="Grupo_30024" data-name="Grupo 30024" transform="translate(3.58)">
          <rect id="Rectángulo_6238" data-name="Rectángulo 6238" width="2.238" height="3.133" fill="#231f20"/>
        </g>
        <g id="Grupo_30025" data-name="Grupo 30025" transform="translate(3.58 5.818)">
          <rect id="Rectángulo_6239" data-name="Rectángulo 6239" width="2.238" height="3.133" fill="#231f20"/>
        </g>
        <g id="Grupo_30026" data-name="Grupo 30026" transform="translate(0 3.58)">
          <rect id="Rectángulo_6240" data-name="Rectángulo 6240" width="3.133" height="2.238" fill="#231f20"/>
        </g>
        <g id="Grupo_30027" data-name="Grupo 30027" transform="translate(6.713 3.58)">
          <rect id="Rectángulo_6241" data-name="Rectángulo 6241" width="2.685" height="2.238" fill="#231f20"/>
        </g>
      </g>
      <g id="Grupo_30033" data-name="Grupo 30033" transform="translate(246.284 222.584)">
        <g id="Grupo_30029" data-name="Grupo 30029" transform="translate(3.58)">
          <rect id="Rectángulo_6242" data-name="Rectángulo 6242" width="2.238" height="3.133" fill="#231f20"/>
        </g>
        <g id="Grupo_30030" data-name="Grupo 30030" transform="translate(3.58 5.818)">
          <rect id="Rectángulo_6243" data-name="Rectángulo 6243" width="2.238" height="3.133" fill="#231f20"/>
        </g>
        <g id="Grupo_30031" data-name="Grupo 30031" transform="translate(0 3.58)">
          <rect id="Rectángulo_6244" data-name="Rectángulo 6244" width="2.685" height="2.238" fill="#231f20"/>
        </g>
        <g id="Grupo_30032" data-name="Grupo 30032" transform="translate(6.265 3.58)">
          <rect id="Rectángulo_6245" data-name="Rectángulo 6245" width="3.133" height="2.238" fill="#231f20"/>
        </g>
      </g>
      <g id="Grupo_30038" data-name="Grupo 30038" transform="translate(414.557 348.789)">
        <g id="Grupo_30034" data-name="Grupo 30034" transform="translate(3.58)">
          <rect id="Rectángulo_6246" data-name="Rectángulo 6246" width="2.238" height="2.685" fill="#231f20"/>
        </g>
        <g id="Grupo_30035" data-name="Grupo 30035" transform="translate(3.58 5.818)">
          <rect id="Rectángulo_6247" data-name="Rectángulo 6247" width="2.238" height="2.685" fill="#231f20"/>
        </g>
        <g id="Grupo_30036" data-name="Grupo 30036" transform="translate(0 3.58)">
          <rect id="Rectángulo_6248" data-name="Rectángulo 6248" width="2.685" height="2.238" fill="#231f20"/>
        </g>
        <g id="Grupo_30037" data-name="Grupo 30037" transform="translate(6.265 3.58)">
          <rect id="Rectángulo_6249" data-name="Rectángulo 6249" width="3.133" height="2.238" fill="#231f20"/>
        </g>
      </g>
      <g id="Grupo_30043" data-name="Grupo 30043" transform="translate(213.614 351.026)">
        <g id="Grupo_30039" data-name="Grupo 30039" transform="translate(3.58)">
          <rect id="Rectángulo_6250" data-name="Rectángulo 6250" width="2.238" height="2.685" fill="#231f20"/>
        </g>
        <g id="Grupo_30040" data-name="Grupo 30040" transform="translate(3.58 5.818)">
          <rect id="Rectángulo_6251" data-name="Rectángulo 6251" width="2.238" height="2.685" fill="#231f20"/>
        </g>
        <g id="Grupo_30041" data-name="Grupo 30041" transform="translate(0 3.58)">
          <rect id="Rectángulo_6252" data-name="Rectángulo 6252" width="2.685" height="2.238" fill="#231f20"/>
        </g>
        <g id="Grupo_30042" data-name="Grupo 30042" transform="translate(6.265 3.58)">
          <rect id="Rectángulo_6253" data-name="Rectángulo 6253" width="3.133" height="2.238" fill="#231f20"/>
        </g>
      </g>
      <g id="Grupo_30048" data-name="Grupo 30048" transform="translate(267.318 365.347)">
        <g id="Grupo_30044" data-name="Grupo 30044" transform="translate(3.58)">
          <rect id="Rectángulo_6254" data-name="Rectángulo 6254" width="2.238" height="3.133" fill="#231f20"/>
        </g>
        <g id="Grupo_30045" data-name="Grupo 30045" transform="translate(3.58 5.818)">
          <rect id="Rectángulo_6255" data-name="Rectángulo 6255" width="2.238" height="3.133" fill="#231f20"/>
        </g>
        <g id="Grupo_30046" data-name="Grupo 30046" transform="translate(0 3.58)">
          <rect id="Rectángulo_6256" data-name="Rectángulo 6256" width="2.685" height="2.238" fill="#231f20"/>
        </g>
        <g id="Grupo_30047" data-name="Grupo 30047" transform="translate(6.265 3.58)">
          <rect id="Rectángulo_6257" data-name="Rectángulo 6257" width="3.133" height="2.238" fill="#231f20"/>
        </g>
      </g>
      <g id="Grupo_30053" data-name="Grupo 30053" transform="translate(427.983 279.869)">
        <g id="Grupo_30049" data-name="Grupo 30049" transform="translate(3.58)">
          <rect id="Rectángulo_6258" data-name="Rectángulo 6258" width="2.238" height="3.133" fill="#231f20"/>
        </g>
        <g id="Grupo_30050" data-name="Grupo 30050" transform="translate(3.58 5.818)">
          <rect id="Rectángulo_6259" data-name="Rectángulo 6259" width="2.238" height="3.133" fill="#231f20"/>
        </g>
        <g id="Grupo_30051" data-name="Grupo 30051" transform="translate(0 3.58)">
          <rect id="Rectángulo_6260" data-name="Rectángulo 6260" width="3.133" height="2.238" fill="#231f20"/>
        </g>
        <g id="Grupo_30052" data-name="Grupo 30052" transform="translate(6.713 3.58)">
          <rect id="Rectángulo_6261" data-name="Rectángulo 6261" width="2.685" height="2.238" fill="#231f20"/>
        </g>
      </g>
      <g id="Grupo_30054" data-name="Grupo 30054" transform="translate(378.29 371.991)">
        <path id="Trazado_28935" data-name="Trazado 28935" d="M425.971,414.324a2.838,2.838,0,1,1-2.838-2.838A2.837,2.837,0,0,1,425.971,414.324Z" transform="translate(-420.295 -411.486)" fill="#aaacae"/>
      </g>
    </g>
  </g>
</svg>
