<svg xmlns="http://www.w3.org/2000/svg" width="100" height="100" viewBox="0 0 100 100">
  <g id="Grupo_31391" data-name="Grupo 31391" transform="translate(-179 -984)">
    <circle id="Elipse_1519" data-name="Elipse 1519" cx="50" cy="50" r="50" transform="translate(179 984)" fill="#e3edf8"/>
    <g id="_011-operation" data-name="011-operation" transform="translate(202 1006)">
      <path id="Trazado_29228" data-name="Trazado 29228" d="M164.755,170.258a.684.684,0,0,0-.679-.592h-3.219a.685.685,0,0,1-.655-.491,10.351,10.351,0,0,0-.8-1.934.685.685,0,0,1,.116-.811l2.275-2.275a.684.684,0,0,0,.061-.9,14.74,14.74,0,0,0-2.708-2.708.684.684,0,0,0-.9.061l-2.275,2.275a.685.685,0,0,1-.811.116,10.354,10.354,0,0,0-1.934-.8.685.685,0,0,1-.491-.655v-3.219a.684.684,0,0,0-.592-.679,14.762,14.762,0,0,0-3.83,0,.684.684,0,0,0-.592.679v3.219a.685.685,0,0,1-.491.655,10.35,10.35,0,0,0-1.934.8.685.685,0,0,1-.811-.116l-2.275-2.275a.684.684,0,0,0-.13-.1,4.615,4.615,0,0,0-1.22,1.938l-.633,2a1.912,1.912,0,0,1-.448,3.771,1.913,1.913,0,1,1,0,3.826h-.66l-.547,2.632H139.6a.685.685,0,0,1,.655.491,10.35,10.35,0,0,0,.8,1.934.685.685,0,0,1-.116.811l-2.275,2.275a.684.684,0,0,0-.061.9,14.739,14.739,0,0,0,2.708,2.708.684.684,0,0,0,.9-.061l2.275-2.275a.686.686,0,0,1,.811-.116,10.349,10.349,0,0,0,1.934.8.685.685,0,0,1,.491.655v3.219a.684.684,0,0,0,.592.679,14.762,14.762,0,0,0,3.83,0,.684.684,0,0,0,.592-.679V182.8a.685.685,0,0,1,.491-.655,10.35,10.35,0,0,0,1.934-.8.685.685,0,0,1,.811.116l2.275,2.275a.684.684,0,0,0,.9.061,14.734,14.734,0,0,0,2.708-2.708.684.684,0,0,0-.061-.9l-2.275-2.275a.686.686,0,0,1-.116-.811,10.353,10.353,0,0,0,.8-1.934.685.685,0,0,1,.655-.491h3.219a.684.684,0,0,0,.679-.592,14.763,14.763,0,0,0,0-3.83Z" transform="translate(-124.326 -140.207)" fill="#7ca1b1"/>
      <path id="Trazado_29229" data-name="Trazado 29229" d="M152.736,160.553v-2.227a.684.684,0,0,0-.592-.679,14.762,14.762,0,0,0-3.83,0,.684.684,0,0,0-.592.679v3.219a.685.685,0,0,1-.491.655,10.35,10.35,0,0,0-1.934.8.685.685,0,0,1-.811-.116l-2.275-2.275a.684.684,0,0,0-.13-.1,4.615,4.615,0,0,0-1.22,1.938l-.633,2a1.912,1.912,0,0,1-.448,3.771,1.913,1.913,0,0,1,0,3.826h-.66l-.547,2.632H139.6a.685.685,0,0,1,.655.491,10.35,10.35,0,0,0,.8,1.934.685.685,0,0,1-.116.811l-2.275,2.275a.684.684,0,0,0-.061.9,14.74,14.74,0,0,0,2.708,2.708.685.685,0,0,0,.9-.061l2.275-2.275a.686.686,0,0,1,.811-.116,10.351,10.351,0,0,0,1.934.8.685.685,0,0,1,.491.655v3.219a.684.684,0,0,0,.592.679,14.762,14.762,0,0,0,3.83,0,.684.684,0,0,0,.592-.679v-2.227a12.295,12.295,0,0,1,0-23.24Z" transform="translate(-124.326 -140.207)" fill="#678d98"/>
      <g id="Grupo_30716" data-name="Grupo 30716" transform="translate(19.324 25.389)">
        <ellipse id="Elipse_1562" data-name="Elipse 1562" cx="6.578" cy="6.578" rx="6.578" ry="6.578" fill="#3e5959"/>
      </g>
      <g id="Grupo_30717" data-name="Grupo 30717" transform="translate(19.324 25.389)">
        <path id="Trazado_29230" data-name="Trazado 29230" d="M188.445,237.553a6.579,6.579,0,0,1,5.185-6.429,6.578,6.578,0,1,0,0,12.857A6.579,6.579,0,0,1,188.445,237.553Z" transform="translate(-185.659 -230.975)" fill="#384949"/>
      </g>
      <g id="Grupo_30718" data-name="Grupo 30718" transform="translate(22.563 28.628)">
        <ellipse id="Elipse_1563" data-name="Elipse 1563" cx="3.339" cy="3.339" rx="3.339" ry="3.339" fill="#fff"/>
      </g>
      <g id="Grupo_30719" data-name="Grupo 30719" transform="translate(22.563 28.628)">
        <path id="Trazado_29231" data-name="Trazado 29231" d="M217.888,263.781a3.339,3.339,0,0,1,1.958-3.04,3.339,3.339,0,1,0,0,6.079A3.339,3.339,0,0,1,217.888,263.781Z" transform="translate(-215.126 -260.442)" fill="#eef5f6"/>
      </g>
      <g id="Grupo_30720" data-name="Grupo 30720" transform="translate(2.414 6.236)">
        <path id="Trazado_29232" data-name="Trazado 29232" d="M209.515,62.031q0,.485-.043.96a19.846,19.846,0,0,1,3.7-.347h16.637a.245.245,0,0,1,.245.245v1.63a.367.367,0,0,0,.57.306l5.576-3.71a.367.367,0,0,0,0-.611l-5.576-3.71a.367.367,0,0,0-.57.306v1.63a.245.245,0,0,1-.245.245H213.373a23.485,23.485,0,0,0-4.2.377A10.729,10.729,0,0,1,209.515,62.031Z" transform="translate(-189.682 -56.731)" fill="#05e39c"/>
        <path id="Trazado_29233" data-name="Trazado 29233" d="M78.208,197.758l-2.5-.043a.584.584,0,0,0-.594.567,19.818,19.818,0,0,1-39.626-.423q0-.518.018-1.029A1.908,1.908,0,0,1,35.8,194.2q.07-.388.154-.77a1.912,1.912,0,0,1,.622-3.444L35.95,188a4.635,4.635,0,0,0-1.053-1.8,23.02,23.02,0,0,0-3.079,11.487,23.488,23.488,0,0,0,46.966.667.586.586,0,0,0-.576-.6Z" transform="translate(-31.818 -171.974)" fill="#05e39c"/>
      </g>
      <g id="Grupo_30721" data-name="Grupo 30721" transform="translate(41.52 17.625)">
        <path id="Trazado_29234" data-name="Trazado 29234" d="M396.11,160.348h-5.272a.612.612,0,0,0-.53.306l-2.636,4.566a.612.612,0,0,0,0,.612l2.636,4.566a.611.611,0,0,0,.53.306h5.272a.612.612,0,0,0,.53-.306l2.636-4.566a.612.612,0,0,0,0-.612l-2.636-4.566A.612.612,0,0,0,396.11,160.348Z" transform="translate(-387.59 -160.348)" fill="#a8d3d8"/>
      </g>
      <path id="Trazado_29235" data-name="Trazado 29235" d="M393.1,170.4l-1.28-2.217a3.125,3.125,0,0,1,0-5.309l1.28-2.217a.612.612,0,0,1,.53-.306h-2.793a.612.612,0,0,0-.53.306l-2.636,4.566a.612.612,0,0,0,0,.612l2.636,4.566a.611.611,0,0,0,.53.306h2.793A.611.611,0,0,1,393.1,170.4Z" transform="translate(-346.069 -142.723)" fill="#8ebac5"/>
      <g id="Grupo_30722" data-name="Grupo 30722" transform="translate(45.1 20.499)">
        <ellipse id="Elipse_1564" data-name="Elipse 1564" cx="2.304" cy="2.304" rx="2.304" ry="2.304" fill="#fff"/>
      </g>
      <g id="Grupo_30723" data-name="Grupo 30723" transform="translate(45.1 20.499)">
        <path id="Trazado_29236" data-name="Trazado 29236" d="M422.018,188.8a2.3,2.3,0,0,1,1.374-2.107,2.3,2.3,0,1,0,0,4.214A2.3,2.3,0,0,1,422.018,188.8Z" transform="translate(-420.158 -186.491)" fill="#eef5f6"/>
      </g>
      <g id="Grupo_30738" data-name="Grupo 30738" transform="translate(0.824 0.824)">
        <g id="Grupo_30725" data-name="Grupo 30725">
          <g id="Grupo_30724" data-name="Grupo 30724">
            <path id="Trazado_29237" data-name="Trazado 29237" d="M27.9,7.5a10.711,10.711,0,0,0-6.375,19.2,4.557,4.557,0,0,1,1.546,2.245l.658,2.084a1.794,1.794,0,0,1,.415-.05H31.98a1.794,1.794,0,0,1,.415.05l.667-2.109a4.682,4.682,0,0,1,1.6-2.266A10.711,10.711,0,0,0,27.9,7.5Z" transform="translate(-17.352 -7.499)" fill="#fed402"/>
          </g>
        </g>
        <g id="Grupo_30727" data-name="Grupo 30727" transform="translate(0 0)">
          <g id="Grupo_30726" data-name="Grupo 30726">
            <path id="Trazado_29238" data-name="Trazado 29238" d="M26.344,28.941A4.557,4.557,0,0,0,24.8,26.7,10.71,10.71,0,0,1,29.7,7.625,10.711,10.711,0,0,0,21.529,26.7a4.557,4.557,0,0,1,1.546,2.245l.658,2.084a1.794,1.794,0,0,1,.415-.05h2.839Z" transform="translate(-17.352 -7.499)" fill="#fac600"/>
          </g>
        </g>
        <g id="Grupo_30728" data-name="Grupo 30728" transform="translate(4.501 4.501)">
          <ellipse id="Elipse_1565" data-name="Elipse 1565" cx="6.21" cy="6.211" rx="6.21" ry="6.211" fill="#fee97d"/>
        </g>
        <g id="Grupo_30729" data-name="Grupo 30729" transform="translate(8.005 8.005)">
          <ellipse id="Elipse_1566" data-name="Elipse 1566" cx="2.707" cy="2.707" rx="2.707" ry="2.707" fill="#fe9901"/>
        </g>
        <g id="Grupo_30730" data-name="Grupo 30730" transform="translate(8.005 8.005)">
          <path id="Trazado_29239" data-name="Trazado 29239" d="M92.551,83.033A2.706,2.706,0,0,1,94.072,80.6a2.707,2.707,0,1,0,0,4.867A2.706,2.706,0,0,1,92.551,83.033Z" transform="translate(-90.18 -80.326)" fill="#fb8801"/>
        </g>
        <g id="Grupo_30737" data-name="Grupo 30737" transform="translate(4.883 23.366)">
          <g id="Grupo_30731" data-name="Grupo 30731" transform="translate(2.569 7.542)">
            <path id="Trazado_29240" data-name="Trazado 29240" d="M85.151,288.686c0,.02.005.04.009.061l.635,2.942a1.634,1.634,0,0,0,1.6,1.289h2.075a1.634,1.634,0,0,0,1.6-1.3l.611-2.942c0-.016,0-.032.007-.048Z" transform="translate(-85.151 -288.686)" fill="#3e5959"/>
          </g>
          <g id="Grupo_30732" data-name="Grupo 30732" transform="translate(2.569 7.542)">
            <path id="Trazado_29241" data-name="Trazado 29241" d="M88.587,291.688l-.635-2.942c0-.02-.006-.04-.009-.061H85.151c0,.02.005.04.009.061l.635,2.942a1.634,1.634,0,0,0,1.6,1.289h2.075a1.63,1.63,0,0,0,.358-.041A1.634,1.634,0,0,1,88.587,291.688Z" transform="translate(-85.151 -288.686)" fill="#384949"/>
          </g>
          <g id="Grupo_30733" data-name="Grupo 30733">
            <path id="Trazado_29242" data-name="Trazado 29242" d="M71.52,223.9H63.688a1.913,1.913,0,0,1,0-3.826H71.52a1.913,1.913,0,0,1,0,3.826Z" transform="translate(-61.775 -220.071)" fill="#a8d3d8"/>
          </g>
          <g id="Grupo_30734" data-name="Grupo 30734">
            <path id="Trazado_29243" data-name="Trazado 29243" d="M65.427,221.984a1.913,1.913,0,0,1,1.913-1.913H63.688a1.913,1.913,0,0,0,0,3.826H67.34A1.913,1.913,0,0,1,65.427,221.984Z" transform="translate(-61.775 -220.071)" fill="#8ebac5"/>
          </g>
          <g id="Grupo_30735" data-name="Grupo 30735" transform="translate(0 3.826)">
            <path id="Trazado_29244" data-name="Trazado 29244" d="M71.52,258.705H63.688a1.913,1.913,0,0,1,0-3.826H71.52a1.913,1.913,0,0,1,0,3.826Z" transform="translate(-61.775 -254.879)" fill="#c8effe"/>
          </g>
          <g id="Grupo_30736" data-name="Grupo 30736" transform="translate(0 3.826)">
            <path id="Trazado_29245" data-name="Trazado 29245" d="M65.427,256.792a1.913,1.913,0,0,1,1.913-1.913H63.688a1.913,1.913,0,1,0,0,3.826H67.34A1.913,1.913,0,0,1,65.427,256.792Z" transform="translate(-61.775 -254.879)" fill="#a8d3d8"/>
          </g>
        </g>
      </g>
      <g id="Grupo_30739" data-name="Grupo 30739" transform="translate(0 0)">
        <path id="Trazado_29246" data-name="Trazado 29246" d="M185.562,238.278a7.42,7.42,0,0,0,6.969-4.906.824.824,0,0,0-1.552-.556,5.753,5.753,0,1,1,.158-3.366.824.824,0,0,0,1.6-.407,7.4,7.4,0,1,0-7.173,9.234Z" transform="translate(-159.66 -198.91)"/>
        <path id="Trazado_29247" data-name="Trazado 29247" d="M211.789,252.942a4.163,4.163,0,1,0,4.163,4.163A4.168,4.168,0,0,0,211.789,252.942Zm0,6.678a2.514,2.514,0,1,1,2.514-2.514A2.517,2.517,0,0,1,211.789,259.62Z" transform="translate(-185.887 -225.139)"/>
        <path id="Trazado_29248" data-name="Trazado 29248" d="M58.672,31.195l-2.5-.043h-.024a1.414,1.414,0,0,0-1.408,1.368,19.017,19.017,0,0,1-18.985,18.44h-.149A19.076,19.076,0,0,1,16.772,32.575a2.73,2.73,0,0,0,.7.091h.011l.484,2.242a2.472,2.472,0,0,0,2.4,1.94h2.075a2.471,2.471,0,0,0,2.284-1.55h.291a11.2,11.2,0,0,0,.787,1.9l-2.2,2.2a1.512,1.512,0,0,0-.132,1.985,15.568,15.568,0,0,0,2.859,2.859,1.512,1.512,0,0,0,1.985-.132l2.2-2.2a11.211,11.211,0,0,0,1.9.787v3.114a1.511,1.511,0,0,0,1.31,1.5,15.578,15.578,0,0,0,4.044,0,1.512,1.512,0,0,0,1.31-1.5V42.7a11.2,11.2,0,0,0,1.9-.787l2.2,2.2a1.512,1.512,0,0,0,1.985.132,15.561,15.561,0,0,0,2.859-2.859A1.512,1.512,0,0,0,47.9,39.4l-2.2-2.2a11.206,11.206,0,0,0,.787-1.9H49.6a1.512,1.512,0,0,0,1.5-1.31,15.592,15.592,0,0,0,0-4.044,1.512,1.512,0,0,0-1.5-1.31H46.489a11.2,11.2,0,0,0-.787-1.9l2.2-2.2a1.512,1.512,0,0,0,.132-1.985,15.562,15.562,0,0,0-2.859-2.86,1.512,1.512,0,0,0-1.985.132l-2.2,2.2a11.206,11.206,0,0,0-1.9-.787V18.118a1.512,1.512,0,0,0-1.31-1.5,15.664,15.664,0,0,0-4.044,0,1.512,1.512,0,0,0-1.31,1.5v3.114a11.2,11.2,0,0,0-1.9.787l-1.681-1.681A11.452,11.452,0,0,0,32.807,13.2a19.167,19.167,0,0,1,2.949-.228H51.813v1.051a1.191,1.191,0,0,0,1.851.992l5.576-3.71a1.191,1.191,0,0,0,0-1.984l-5.576-3.71a1.191,1.191,0,0,0-1.851.992V7.654H35.959a24.5,24.5,0,0,0-3.607.269A11.538,11.538,0,1,0,14.3,20.635a23.794,23.794,0,0,0-2.858,11.319A24.3,24.3,0,0,0,51.121,50.793a.824.824,0,0,0-1.044-1.276A22.664,22.664,0,0,1,13.093,31.955a22.149,22.149,0,0,1,2.338-9.91,4.024,4.024,0,0,1,.184.47l.4,1.273a2.733,2.733,0,0,0-.519,4.207l-.011.056a2.73,2.73,0,0,0-.362,3.283c-.008.264-.013.529-.011.795a20.7,20.7,0,0,0,20.48,20.481h.162A20.666,20.666,0,0,0,56.381,32.8l2.021.035a22.672,22.672,0,0,1-5.65,14.1.824.824,0,0,0,1.236,1.091,24.32,24.32,0,0,0,6.07-15.387,1.411,1.411,0,0,0-1.386-1.449ZM16.385,26.1a1.09,1.09,0,0,1,1.089-1.089h7.832a1.089,1.089,0,0,1,0,2.177H17.474A1.09,1.09,0,0,1,16.385,26.1Zm5-12.685a1.882,1.882,0,1,1,1.882-1.882A1.884,1.884,0,0,1,21.39,13.418Zm5,16.511a1.09,1.09,0,0,1-1.089,1.089H17.474a1.089,1.089,0,0,1,0-2.177h7.832A1.09,1.09,0,0,1,26.394,29.929ZM22.447,35.2H20.372a.814.814,0,0,1-.792-.639l-.409-1.894h4.46l-.392,1.888A.813.813,0,0,1,22.447,35.2Zm8.767-11.68a9.546,9.546,0,0,1,1.78-.737,1.5,1.5,0,0,0,1.078-1.445v-3.1a14.01,14.01,0,0,1,3.366,0v3.1a1.5,1.5,0,0,0,1.078,1.445,9.547,9.547,0,0,1,1.78.737,1.5,1.5,0,0,0,1.785-.259l2.188-2.188a13.911,13.911,0,0,1,2.38,2.381L44.462,25.64a1.5,1.5,0,0,0-.259,1.785,9.543,9.543,0,0,1,.737,1.78,1.5,1.5,0,0,0,1.445,1.078h3.1a13.938,13.938,0,0,1,0,3.366h-3.1a1.5,1.5,0,0,0-1.445,1.078,9.548,9.548,0,0,1-.737,1.78,1.5,1.5,0,0,0,.259,1.784l2.188,2.189a13.922,13.922,0,0,1-2.38,2.381l-2.189-2.189a1.5,1.5,0,0,0-1.785-.259,9.547,9.547,0,0,1-1.78.737A1.5,1.5,0,0,0,37.439,42.6v3.1a14,14,0,0,1-3.366,0V42.6a1.5,1.5,0,0,0-1.078-1.445,9.551,9.551,0,0,1-1.78-.737,1.5,1.5,0,0,0-1.785.259l-2.188,2.188a13.913,13.913,0,0,1-2.38-2.38l2.188-2.189a1.5,1.5,0,0,0,.259-1.785,9.547,9.547,0,0,1-.737-1.78,1.5,1.5,0,0,0-1.445-1.078h-.015l.2-.983a2.735,2.735,0,0,0,1.945-4.65,2.733,2.733,0,0,0-.5-4.229l.41-1.3a3.676,3.676,0,0,1,.492-.994L29.43,23.26a1.5,1.5,0,0,0,1.785.26ZM35.959,9.3H52.393a1.07,1.07,0,0,0,1.069-1.069V7.457l4.293,2.856L53.462,13.17v-.777a1.07,1.07,0,0,0-1.069-1.069H35.756a20.853,20.853,0,0,0-2.83.193,11.692,11.692,0,0,0-.172-1.987A22.878,22.878,0,0,1,35.959,9.3ZM11.506,11.264a9.887,9.887,0,1,1,15.971,8.061A5.491,5.491,0,0,0,25.6,21.992l-.434,1.373H22.214V18.523A7,7,0,0,0,28.1,13.659a.824.824,0,1,0-1.572-.5,5.361,5.361,0,0,1-4.312,3.7v-1.89a3.531,3.531,0,1,0-1.649,0v1.89A5.386,5.386,0,1,1,26.5,9.825.824.824,0,1,0,28.06,9.3a7.035,7.035,0,1,0-7.495,9.22v4.845H17.612l-.426-1.348a5.354,5.354,0,0,0-1.828-2.649,9.931,9.931,0,0,1-3.852-8.1Z" transform="translate(-9.854 0)"/>
        <path id="Trazado_29249" data-name="Trazado 29249" d="M393.319,158.132l-2.636-4.566a1.44,1.44,0,0,0-1.244-.718h-5.272a1.44,1.44,0,0,0-1.244.718l-2.636,4.566a1.44,1.44,0,0,0,0,1.436l2.636,4.566a1.44,1.44,0,0,0,1.244.718h5.272a1.44,1.44,0,0,0,1.244-.718l2.636-4.566A1.439,1.439,0,0,0,393.319,158.132Zm-4,5.071h-5.027l-2.513-4.353,2.513-4.353h5.027l2.513,4.353Z" transform="translate(-339.399 -136.047)"/>
        <path id="Trazado_29250" data-name="Trazado 29250" d="M415.786,178.991a3.129,3.129,0,1,0,3.129,3.129A3.132,3.132,0,0,0,415.786,178.991Zm0,4.608a1.48,1.48,0,1,1,1.48-1.48A1.481,1.481,0,0,1,415.786,183.6Z" transform="translate(-368.383 -159.317)"/>
      </g>
    </g>
  </g>
</svg>
