<svg xmlns="http://www.w3.org/2000/svg" xmlns:xlink="http://www.w3.org/1999/xlink" width="141" height="19" viewBox="0 0 141 19">
  <defs>
    <clipPath id="clip-path">
      <rect id="Rectángulo_6142" data-name="Rectángulo 6142" width="141" height="19" transform="translate(0.001 0.27)" fill="#fff"/>
    </clipPath>
  </defs>
  <g id="LucidLogo_Website" transform="translate(0 -0.27)" clip-path="url(#clip-path)">
    <path id="Trazado_28899" data-name="Trazado 28899" d="M11.633,0V15.39L5.006,19.239,5,3.845Z" transform="translate(-2.65)" fill="#f96b13"/>
    <path id="Trazado_28900" data-name="Trazado 28900" d="M25.742,24.551V32.01l-6.63,0V28.4Z" transform="translate(-10.13 -13.012)" fill="#f96b13"/>
    <path id="Trazado_28901" data-name="Trazado 28901" d="M47.344,3.555h3.905V17.806h7.017v3.079H47.344Z" transform="translate(-25.092 -1.884)" fill="#282c33"/>
    <path id="Trazado_28902" data-name="Trazado 28902" d="M73.156,21.626V13.46h3.471v7.681c0,1.721.7,2.544,2.193,2.544A2.515,2.515,0,0,0,81.448,20.9V13.46h3.471V26.135H81.448V24.148a4.173,4.173,0,0,1-4,2.253C74.987,26.4,73.156,24.946,73.156,21.626Z" transform="translate(-38.773 -7.134)" fill="#282c33"/>
    <path id="Trazado_28903" data-name="Trazado 28903" d="M101.574,19.627v-.194a6.281,6.281,0,0,1,6.511-6.592c2.918,0,5.617,1.286,5.933,4.918h-3.3A2.326,2.326,0,0,0,108.16,15.6c-1.809,0-3.015,1.358-3.015,3.78v.194c0,2.544,1.134,3.855,3.086,3.855a2.558,2.558,0,0,0,2.7-2.447h3.158c-.194,3.007-2.362,5.09-6.03,5.09C104.373,26.073,101.574,23.77,101.574,19.627Z" transform="translate(-53.834 -6.806)" fill="#282c33"/>
    <path id="Trazado_28904" data-name="Trazado 28904" d="M130.975,3.566a1.992,1.992,0,1,1,1.978,1.915A1.915,1.915,0,0,1,130.975,3.566Zm.266,3.636h3.471V19.876h-3.471V7.2Z" transform="translate(-69.417 -0.875)" fill="#282c33"/>
    <path id="Trazado_28905" data-name="Trazado 28905" d="M142.621,13.5v-.194c0-4.167,2.387-6.617,5.546-6.617a4.2,4.2,0,0,1,3.98,2.181V1.238h3.471V19.657h-3.471V17.548a4.581,4.581,0,0,1-4.052,2.375C145.033,19.923,142.621,17.717,142.621,13.5Zm9.62-.119v-.194c0-2.522-1.109-3.8-3.015-3.8-1.953,0-3.04,1.333-3.04,3.855v.194c0,2.522,1.206,3.758,2.943,3.758C150.963,17.185,152.241,15.95,152.241,13.381Z" transform="translate(-75.589 -0.656)" fill="#282c33"/>
    <path id="Trazado_28906" data-name="Trazado 28906" d="M173.711,19.627v-.194a6.282,6.282,0,0,1,6.511-6.592c2.918,0,5.617,1.286,5.933,4.918h-3.3A2.326,2.326,0,0,0,180.3,15.6c-1.809,0-3.015,1.358-3.015,3.78v.194c0,2.544,1.134,3.855,3.087,3.855a2.558,2.558,0,0,0,2.7-2.447h3.159c-.194,3.007-2.362,5.09-6.03,5.09C176.507,26.073,173.711,23.77,173.711,19.627Z" transform="translate(-92.067 -6.806)" fill="#282c33"/>
    <path id="Trazado_28907" data-name="Trazado 28907" d="M203.465,1.238h3.5V8.994a4.355,4.355,0,0,1,4.1-2.3c2.484,0,4.243,1.5,4.243,4.9v8.069h-3.5V12.095c0-1.721-.675-2.544-2.218-2.544a2.5,2.5,0,0,0-2.627,2.788v7.318h-3.5V1.238Z" transform="translate(-107.836 -0.656)" fill="#282c33"/>
    <path id="Trazado_28908" data-name="Trazado 28908" d="M231.737,22.29c0-2.957,2.7-4.071,6.558-4.071h1.421v-.51c0-1.5-.459-2.328-2.05-2.328a1.9,1.9,0,0,0-2.146,1.793h-3.3c.216-3.007,2.581-4.34,5.668-4.34s5.28,1.261,5.28,4.7V25.8h-3.4V24.273a4.286,4.286,0,0,1-3.811,1.793C233.668,26.069,231.737,24.955,231.737,22.29Zm7.982-.923V20.3h-1.35c-2.024,0-3.209.435-3.209,1.793,0,.92.556,1.527,1.834,1.527C238.538,23.623,239.719,22.775,239.719,21.367Z" transform="translate(-122.821 -6.802)" fill="#282c33"/>
    <path id="Trazado_28909" data-name="Trazado 28909" d="M260.879,13.242h3.5v2.425a4.143,4.143,0,0,1,4.074-2.619V16.32c-2.581-.025-4.074.823-4.074,3.248v6.348h-3.5Z" transform="translate(-138.266 -6.915)" fill="#282c33"/>
    <path id="Trazado_28910" data-name="Trazado 28910" d="M279.99,19.287V12.863h-1.615v-2.5h1.615V7.629h3.471v2.738h2.652v2.5h-2.652v6.107c0,1.017.506,1.5,1.4,1.5a3.265,3.265,0,0,0,1.328-.241v2.716a6.338,6.338,0,0,1-2.122.338C281.412,23.285,279.99,21.927,279.99,19.287Z" transform="translate(-147.539 -4.043)" fill="#282c33"/>
  </g>
</svg>
