<svg xmlns="http://www.w3.org/2000/svg" width="121.999" height="32" viewBox="0 0 121.999 32">
  <path id="logo" d="M59.9,0,54.75,2.194v14.07a9.9,9.9,0,0,0,9.923,9.6V20.736a4.73,4.73,0,0,1-3.367-1.379,4.8,4.8,0,0,1-1.414-3.374V11.149h4.781V6.034H59.9V0ZM42.817,6.034a9.875,9.875,0,1,0,9.93,9.873,9.839,9.839,0,0,0-9.93-9.873Zm0,14.629A4.755,4.755,0,1,1,47.6,15.9a4.8,4.8,0,0,1-1.412,3.379,4.73,4.73,0,0,1-3.37,1.38ZM75.852,6.033a9.876,9.876,0,1,0,9.932,9.874,9.841,9.841,0,0,0-9.932-9.874Zm0,14.63A4.755,4.755,0,1,1,80.63,15.9,4.739,4.739,0,0,1,75.852,20.663ZM10.4,6.033a9.906,9.906,0,0,0-9.93,9.875c0,.13,0,.26.01.389H.472v13.51L5.62,32V24.563a9.935,9.935,0,0,0,4.781,1.22,9.786,9.786,0,0,0,8.6-4.9,9.94,9.94,0,0,0,0-9.952,9.786,9.786,0,0,0-8.6-4.9Zm0,14.63a4.755,4.755,0,1,1,4.781-4.76,4.806,4.806,0,0,1-1.412,3.378A4.733,4.733,0,0,1,10.4,20.663Zm11.8-5.036v10.22h5.149V15.9a4.8,4.8,0,0,1,1.414-3.375,4.73,4.73,0,0,1,3.367-1.379V6.034a9.9,9.9,0,0,0-9.93,9.6Zm90.339-9.6a9.87,9.87,0,1,1,0,.007Zm0,14.628a4.755,4.755,0,1,1,4.781-4.755,4.8,4.8,0,0,1-1.41,3.38,4.73,4.73,0,0,1-3.371,1.383v-.008Zm-17.1,5.128h5.149V6.033h-5.15v19.75Zm-5.5-6.642a3.32,3.32,0,1,0,3.338,3.32A3.308,3.308,0,0,0,89.948,19.141Z" transform="translate(-0.472)" fill="#161637" fill-rule="evenodd"/>
</svg>
