<svg xmlns="http://www.w3.org/2000/svg" width="100" height="100" viewBox="0 0 100 100">
  <g id="Grupo_31390" data-name="Grupo 31390" transform="translate(-179 -818)">
    <circle id="Elipse_1518" data-name="Elipse 1518" cx="50" cy="50" r="50" transform="translate(179 818)" fill="#e3edf8"/>
    <g id="_007-productivity" data-name="007-productivity" transform="translate(203 840)">
      <path id="Trazado_29134" data-name="Trazado 29134" d="M243.315,15.981h2.871a.33.33,0,0,1,.33.33V27.25l1.6-1.6a.866.866,0,0,1,1.139-.077,18.662,18.662,0,0,1,2.372,2.175V16.311a.33.33,0,0,1,.33-.33h2.768a.33.33,0,0,0,.267-.523l-5.656-7.822a.33.33,0,0,0-.533,0l-5.755,7.822a.33.33,0,0,0,.266.525Z" transform="translate(-218.59 -6.676)" fill="#05e39c"/>
      <g id="Grupo_30625" data-name="Grupo 30625" transform="translate(24.394 0.824)">
        <g id="Grupo_30624" data-name="Grupo 30624">
          <path id="Trazado_29135" data-name="Trazado 29135" d="M250.593,9.374l-1.256-1.737a.33.33,0,0,0-.533,0l-5.754,7.822a.33.33,0,0,0,.266.525h2.417Z" transform="translate(-242.985 -7.5)" fill="#0ed290"/>
        </g>
      </g>
      <g id="Grupo_30629" data-name="Grupo 30629" transform="translate(0.824 15.065)">
        <path id="Trazado_29136" data-name="Trazado 29136" d="M56.345,166.346a11.1,11.1,0,0,1,9.3-10.955,18.681,18.681,0,0,0-.154-2.206.866.866,0,0,0-.86-.75H60.554a.867.867,0,0,1-.83-.621,13.106,13.106,0,0,0-1.014-2.448.868.868,0,0,1,.147-1.027l2.88-2.88a.867.867,0,0,0,.078-1.139,18.661,18.661,0,0,0-3.428-3.429.867.867,0,0,0-1.139.077l-2.88,2.88a.868.868,0,0,1-1.027.147,13.1,13.1,0,0,0-2.448-1.014.867.867,0,0,1-.621-.83v-4.075a.866.866,0,0,0-.75-.86,18.69,18.69,0,0,0-4.85,0,.866.866,0,0,0-.75.86v4.075a.867.867,0,0,1-.621.83A13.1,13.1,0,0,0,40.852,144a.868.868,0,0,1-1.027-.147l-2.88-2.88a.867.867,0,0,0-1.139-.077,18.654,18.654,0,0,0-3.428,3.429.866.866,0,0,0,.078,1.139l2.88,2.88a.868.868,0,0,1,.147,1.027,13.105,13.105,0,0,0-1.014,2.448.867.867,0,0,1-.83.621H29.564a.866.866,0,0,0-.86.75,18.691,18.691,0,0,0,0,4.85.866.866,0,0,0,.86.75h4.075a.867.867,0,0,1,.83.621,13.106,13.106,0,0,0,1.014,2.448.868.868,0,0,1-.147,1.027l-2.88,2.88a.867.867,0,0,0-.078,1.139,18.661,18.661,0,0,0,3.428,3.429.866.866,0,0,0,1.139-.078l2.88-2.88a.868.868,0,0,1,1.027-.147,13.105,13.105,0,0,0,2.448,1.014.867.867,0,0,1,.621.83v4.075a.866.866,0,0,0,.75.86,18.692,18.692,0,0,0,4.85,0,.866.866,0,0,0,.75-.86v-4.075a.867.867,0,0,1,.621-.83,13.106,13.106,0,0,0,2.448-1.014.868.868,0,0,1,1.027.147l2.574,2.574a11.089,11.089,0,0,1-.6-3.6Z" transform="translate(-28.546 -137.059)" fill="#7ca1b1"/>
        <path id="Trazado_29137" data-name="Trazado 29137" d="M42.377,163.674a9.341,9.341,0,0,1,0-16.125,16.645,16.645,0,0,1,7.895-7.153v-2.318a.866.866,0,0,0-.75-.86,18.69,18.69,0,0,0-4.85,0,.866.866,0,0,0-.75.86v4.075a.867.867,0,0,1-.621.83A13.106,13.106,0,0,0,40.852,144a.868.868,0,0,1-1.027-.147l-2.88-2.88a.866.866,0,0,0-1.139-.077,18.655,18.655,0,0,0-3.428,3.429.866.866,0,0,0,.078,1.139l2.88,2.88a.868.868,0,0,1,.147,1.027,13.1,13.1,0,0,0-1.014,2.448.867.867,0,0,1-.83.621H29.564a.866.866,0,0,0-.86.75,18.691,18.691,0,0,0,0,4.85.866.866,0,0,0,.86.75h4.075a.867.867,0,0,1,.83.621,13.105,13.105,0,0,0,1.014,2.448.868.868,0,0,1-.147,1.027l-2.88,2.88a.867.867,0,0,0-.078,1.139,18.66,18.66,0,0,0,3.428,3.429.866.866,0,0,0,1.139-.078l2.88-2.88a.868.868,0,0,1,1.027-.147A13.105,13.105,0,0,0,43.3,168.24a.867.867,0,0,1,.621.83v4.075a.866.866,0,0,0,.75.86,18.69,18.69,0,0,0,4.85,0,.866.866,0,0,0,.75-.86v-2.318a16.647,16.647,0,0,1-7.895-7.153Z" transform="translate(-28.546 -137.061)" fill="#678d98"/>
        <g id="Grupo_30626" data-name="Grupo 30626" transform="translate(9.207 9.208)">
          <ellipse id="Elipse_1550" data-name="Elipse 1550" cx="9.343" cy="9.343" rx="9.343" ry="9.343" fill="#dff6fd"/>
        </g>
        <path id="Trazado_29138" data-name="Trazado 29138" d="M116.656,234.313a6.483,6.483,0,0,1,0-8.283,9.356,9.356,0,0,1,6.688-5.047,9.343,9.343,0,1,0,0,18.377A9.356,9.356,0,0,1,116.656,234.313Z" transform="translate(-103.106 -211.62)" fill="#c8effe"/>
        <g id="Grupo_30627" data-name="Grupo 30627" transform="translate(12.878 12.879)">
          <ellipse id="Elipse_1551" data-name="Elipse 1551" cx="5.672" cy="5.672" rx="5.672" ry="5.672" fill="#678d98"/>
        </g>
        <g id="Grupo_30628" data-name="Grupo 30628" transform="translate(12.878 12.879)">
          <path id="Trazado_29139" data-name="Trazado 29139" d="M149.125,259.9a5.675,5.675,0,0,1,3.964-5.41,5.672,5.672,0,1,0,0,10.82A5.675,5.675,0,0,1,149.125,259.9Z" transform="translate(-145.709 -254.223)" fill="#537983"/>
        </g>
        <ellipse id="Elipse_1552" data-name="Elipse 1552" cx="2.386" cy="2.386" rx="2.386" ry="2.386" transform="translate(16.165 16.165)" fill="#fff"/>
      </g>
      <path id="Trazado_29140" data-name="Trazado 29140" d="M361.364,110.423h2.871a.33.33,0,0,1,.33.33v13.3a11.036,11.036,0,0,1,5.111,1.89V110.753a.33.33,0,0,1,.33-.33h2.768a.33.33,0,0,0,.267-.523l-5.656-7.822a.33.33,0,0,0-.533,0L361.1,109.9a.33.33,0,0,0,.266.525Z" transform="translate(-323.663 -90.737)" fill="#05e39c"/>
      <g id="Grupo_30631" data-name="Grupo 30631" transform="translate(37.37 11.205)">
        <g id="Grupo_30630" data-name="Grupo 30630">
          <path id="Trazado_29141" data-name="Trazado 29141" d="M368.666,103.85l-1.281-1.771a.33.33,0,0,0-.533,0L361.1,109.9a.33.33,0,0,0,.266.525h2.466Z" transform="translate(-361.034 -101.943)" fill="#0ed290"/>
        </g>
      </g>
      <g id="Grupo_30636" data-name="Grupo 30636" transform="translate(28.623 33.25)">
        <g id="Grupo_30632" data-name="Grupo 30632" transform="translate(0)">
          <ellipse id="Elipse_1553" data-name="Elipse 1553" cx="11.102" cy="11.102" rx="11.102" ry="11.102" fill="#fd5426"/>
        </g>
        <g id="Grupo_30633" data-name="Grupo 30633">
          <path id="Trazado_29142" data-name="Trazado 29142" d="M284.592,313.6a11.1,11.1,0,0,1,9.533-10.991,11.1,11.1,0,1,0,0,21.982A11.1,11.1,0,0,1,284.592,313.6Z" transform="translate(-281.454 -302.5)" fill="#ef4424"/>
        </g>
        <g id="Grupo_30634" data-name="Grupo 30634" transform="translate(2.748 2.748)">
          <ellipse id="Elipse_1554" data-name="Elipse 1554" cx="8.354" cy="8.354" rx="8.354" ry="8.354" fill="#fff"/>
        </g>
        <g id="Grupo_30635" data-name="Grupo 30635" transform="translate(2.748 2.748)">
          <path id="Trazado_29143" data-name="Trazado 29143" d="M309.812,335.854a8.368,8.368,0,0,1,6.675-8.184,8.354,8.354,0,1,0,0,16.369A8.368,8.368,0,0,1,309.812,335.854Z" transform="translate(-306.454 -327.5)" fill="#eef5f6"/>
        </g>
      </g>
      <g id="Grupo_30637" data-name="Grupo 30637" transform="translate(-0.001 0)">
        <path id="Trazado_29144" data-name="Trazado 29144" d="M124.332,222.788a.824.824,0,0,0,.68-.947,10.161,10.161,0,1,0-.182,4.185.824.824,0,1,0-1.6-.41,8.529,8.529,0,1,1,.152-3.509A.824.824,0,0,0,124.332,222.788Z" transform="translate(-95.606 -189.878)"/>
        <path id="Trazado_29145" data-name="Trazado 29145" d="M144.706,246.723a6.5,6.5,0,1,0,6.5,6.5A6.5,6.5,0,0,0,144.706,246.723Zm0,11.345a4.848,4.848,0,1,1,4.848-4.848A4.853,4.853,0,0,1,144.706,258.068Z" transform="translate(-125.331 -219.604)"/>
        <path id="Trazado_29146" data-name="Trazado 29146" d="M171.318,276.623a3.21,3.21,0,1,0,3.21,3.21A3.214,3.214,0,0,0,171.318,276.623Zm0,4.772a1.561,1.561,0,1,1,1.561-1.561A1.563,1.563,0,0,1,171.318,281.395Z" transform="translate(-151.943 -246.217)"/>
        <path id="Trazado_29147" data-name="Trazado 29147" d="M67.884,34.785V29.568a.824.824,0,1,0-1.649,0v4.185a11.831,11.831,0,0,0-3.463-1.159V20.016a1.155,1.155,0,0,0-1.154-1.154H59.725L64.5,12.374l4.691,6.488h-1.8a1.155,1.155,0,0,0-1.154,1.154v5.7a.824.824,0,1,0,1.649,0v-5.21h2.274a1.154,1.154,0,0,0,.935-1.831l-5.656-7.821a1.158,1.158,0,0,0-.931-.478h0a1.158,1.158,0,0,0-.93.47l-5.755,7.822a1.154,1.154,0,0,0,.93,1.838h2.377V32.432c-.117,0-.235-.006-.353-.006-.341,0-.679.015-1.013.043-.027-.464-.067-.927-.127-1.385a1.694,1.694,0,0,0-1.678-1.468H53.878a.043.043,0,0,1-.04-.034,13.96,13.96,0,0,0-1.077-2.6.044.044,0,0,1,0-.053l2.88-2.88a1.7,1.7,0,0,0,.148-2.224q-.423-.551-.885-1.069V10.13h2.274a1.154,1.154,0,0,0,.935-1.83L52.461.478A1.158,1.158,0,0,0,51.531,0h0a1.158,1.158,0,0,0-.93.47L44.842,8.292a1.154,1.154,0,0,0,.93,1.838h2.377v10.1l-1.039,1.039a.044.044,0,0,1-.053,0,13.953,13.953,0,0,0-2.6-1.077.043.043,0,0,1-.034-.04V16.083a1.694,1.694,0,0,0-1.468-1.678,19.609,19.609,0,0,0-5.064,0,1.694,1.694,0,0,0-1.468,1.678v4.075a.043.043,0,0,1-.034.04,13.96,13.96,0,0,0-2.6,1.077.044.044,0,0,1-.053,0l-2.88-2.88a1.694,1.694,0,0,0-2.224-.148,19.488,19.488,0,0,0-3.58,3.58,1.7,1.7,0,0,0,.148,2.224l2.88,2.88a.044.044,0,0,1,0,.053A13.956,13.956,0,0,0,27,29.583a.043.043,0,0,1-.04.034H22.888a1.694,1.694,0,0,0-1.678,1.468,19.522,19.522,0,0,0,0,5.064,1.694,1.694,0,0,0,1.678,1.468h4.075a.043.043,0,0,1,.04.034,13.96,13.96,0,0,0,1.077,2.6.044.044,0,0,1,0,.053l-2.88,2.88a1.694,1.694,0,0,0-.148,2.224,19.488,19.488,0,0,0,3.58,3.58,1.694,1.694,0,0,0,2.224-.148l2.88-2.88a.044.044,0,0,1,.053,0,13.954,13.954,0,0,0,2.6,1.077.043.043,0,0,1,.034.04v4.075a1.694,1.694,0,0,0,1.468,1.678,19.521,19.521,0,0,0,5.064,0,1.694,1.694,0,0,0,1.467-1.678V47.073a.043.043,0,0,1,.034-.04,13.952,13.952,0,0,0,2.6-1.077.044.044,0,0,1,.053,0l2.446,2.446A11.925,11.925,0,1,0,67.884,34.785ZM46.749,8.481l4.773-6.488,4.691,6.488h-1.8A1.155,1.155,0,0,0,53.26,9.635v9.473q-.508-.45-1.046-.865a1.694,1.694,0,0,0-2.224.148l-.193.193V9.635a1.155,1.155,0,0,0-1.154-1.154Zm2.143,36.931-.618-.618a1.683,1.683,0,0,0-2-.29,12.31,12.31,0,0,1-2.294.95,1.682,1.682,0,0,0-1.209,1.62v4.075a.042.042,0,0,1-.033.043,17.958,17.958,0,0,1-4.636,0,.042.042,0,0,1-.033-.043V47.074a1.682,1.682,0,0,0-1.209-1.62,12.3,12.3,0,0,1-2.294-.95,1.7,1.7,0,0,0-.809-.206,1.679,1.679,0,0,0-1.191.5l-2.88,2.88a.043.043,0,0,1-.054.007A17.837,17.837,0,0,1,26.355,44.4a.043.043,0,0,1,.007-.054l2.88-2.88a1.683,1.683,0,0,0,.29-2,12.3,12.3,0,0,1-.95-2.294,1.682,1.682,0,0,0-1.62-1.209H22.888a.042.042,0,0,1-.043-.033,17.86,17.86,0,0,1,0-4.635.042.042,0,0,1,.043-.033h4.075a1.682,1.682,0,0,0,1.62-1.209,12.3,12.3,0,0,1,.95-2.294,1.683,1.683,0,0,0-.29-2l-2.88-2.88a.042.042,0,0,1-.007-.054,17.833,17.833,0,0,1,3.277-3.277.043.043,0,0,1,.054.007l2.88,2.88a1.683,1.683,0,0,0,2,.29,12.306,12.306,0,0,1,2.294-.95,1.682,1.682,0,0,0,1.209-1.62V16.084a.042.042,0,0,1,.033-.043,17.948,17.948,0,0,1,4.636,0,.042.042,0,0,1,.033.043v4.075a1.682,1.682,0,0,0,1.209,1.62,12.313,12.313,0,0,1,2.294.95,1.683,1.683,0,0,0,2-.29l2.88-2.88a.043.043,0,0,1,.054-.007,17.833,17.833,0,0,1,3.277,3.277.043.043,0,0,1-.007.054l-2.88,2.88a1.683,1.683,0,0,0-.29,2,12.3,12.3,0,0,1,.95,2.294,1.682,1.682,0,0,0,1.62,1.209h4.075A.042.042,0,0,1,58,31.3c.062.471.1.948.126,1.425a11.947,11.947,0,0,0-9.277,11.629c0,.357.016.711.047,1.06ZM60.771,54.63A10.277,10.277,0,1,1,71.048,44.352,10.289,10.289,0,0,1,60.771,54.63Z" transform="translate(-21.046 0)"/>
        <path id="Trazado_29148" data-name="Trazado 29148" d="M315.558,327.939a.824.824,0,1,0,1.626-.27,9.178,9.178,0,1,0-9.052,10.687,9.094,9.094,0,0,0,5.493-1.829A9.271,9.271,0,0,0,316.9,331.9a.824.824,0,1,0-1.575-.489,7.61,7.61,0,0,1-2.689,3.8,7.458,7.458,0,0,1-4.5,1.5,7.526,7.526,0,1,1,7.426-8.768Z" transform="translate(-268.407 -284.826)"/>
        <path id="Trazado_29149" data-name="Trazado 29149" d="M375.778,342.5a.824.824,0,0,0-.824.824v5.881a.824.824,0,0,0,1.273.691l3.747-2.432a.824.824,0,0,0-.9-1.383l-2.474,1.606v-4.362A.824.824,0,0,0,375.778,342.5Z" transform="translate(-336.053 -304.854)"/>
      </g>
    </g>
  </g>
</svg>
