<svg id="coding" xmlns="http://www.w3.org/2000/svg" width="45.678" height="45.678" viewBox="0 0 45.678 45.678">
  <g id="Grupo_31396" data-name="Grupo 31396" transform="translate(34.794 33.373)">
    <g id="Grupo_31395" data-name="Grupo 31395">
      <path id="Trazado_29938" data-name="Trazado 29938" d="M391.523,374.341a.892.892,0,1,0,.261.631A.9.9,0,0,0,391.523,374.341Z" transform="translate(-390 -374.08)" fill="#ffa726"/>
    </g>
  </g>
  <g id="Grupo_31398" data-name="Grupo 31398" transform="translate(0 0)">
    <g id="Grupo_31397" data-name="Grupo 31397">
      <path id="Trazado_29939" data-name="Trazado 29939" d="M42.109,0H3.569A3.573,3.573,0,0,0,0,3.57V31.59a3.573,3.573,0,0,0,3.569,3.569H17.575v4.478a5.181,5.181,0,0,0-4.669,5.149.892.892,0,0,0,.892.892H31.879a.892.892,0,0,0,.892-.892,5.18,5.18,0,0,0-4.847-5.163V35.159h4.163a.892.892,0,1,0,0-1.784H3.569A1.786,1.786,0,0,1,1.784,31.59V3.57A1.786,1.786,0,0,1,3.569,1.785H42.109A1.786,1.786,0,0,1,43.893,3.57V31.59a1.786,1.786,0,0,1-1.784,1.784H38.778a.892.892,0,1,0,0,1.784h3.331a3.573,3.573,0,0,0,3.569-3.569V3.57A3.573,3.573,0,0,0,42.109,0ZM19.359,35.159h6.78v4.453h-6.78ZM27.6,41.4a3.4,3.4,0,0,1,3.271,2.5H14.81a3.4,3.4,0,0,1,3.271-2.5Z" transform="translate(0 -0.001)" fill="#ffa726"/>
    </g>
  </g>
  <g id="Grupo_31400" data-name="Grupo 31400" transform="translate(21.857 30.518)">
    <g id="Grupo_31399" data-name="Grupo 31399">
      <path id="Trazado_29940" data-name="Trazado 29940" d="M246.523,342.342a.892.892,0,1,0,.261.631A.9.9,0,0,0,246.523,342.342Z" transform="translate(-245 -342.081)" fill="#ffa726"/>
    </g>
  </g>
  <g id="Grupo_31402" data-name="Grupo 31402" transform="translate(10.889 10.46)">
    <g id="Grupo_31401" data-name="Grupo 31401">
      <path id="Trazado_29941" data-name="Trazado 29941" d="M124.209,123.142l4.371-4.371a.892.892,0,1,0-1.262-1.262l-5,5a.892.892,0,0,0,0,1.262l5,5a.892.892,0,1,0,1.262-1.262Z" transform="translate(-122.055 -117.248)" fill="#ffa726"/>
    </g>
  </g>
  <g id="Grupo_31404" data-name="Grupo 31404" transform="translate(28.002 10.46)">
    <g id="Grupo_31403" data-name="Grupo 31403">
      <path id="Trazado_29942" data-name="Trazado 29942" d="M320.4,122.511l-5-5a.892.892,0,1,0-1.262,1.262l4.371,4.371-4.371,4.371a.892.892,0,0,0,1.262,1.262l5-5A.892.892,0,0,0,320.4,122.511Z" transform="translate(-313.877 -117.248)" fill="#ffa726"/>
    </g>
  </g>
  <g id="Grupo_31406" data-name="Grupo 31406" transform="translate(20.611 10.811)">
    <g id="Grupo_31405" data-name="Grupo 31405">
      <path id="Trazado_29943" data-name="Trazado 29943" d="M234.822,121.217a.892.892,0,0,0-1.093.631l-2.671,9.968a.892.892,0,1,0,1.724.462l2.671-9.968A.892.892,0,0,0,234.822,121.217Z" transform="translate(-231.028 -121.186)" fill="#ffa726"/>
    </g>
  </g>
  <g id="Grupo_31408" data-name="Grupo 31408" transform="translate(3.569 3.576)">
    <g id="Grupo_31407" data-name="Grupo 31407">
      <path id="Trazado_29944" data-name="Trazado 29944" d="M77.648,40.084H63.463a.892.892,0,1,0,0,1.784H76.756v22.3H41.784v-22.3H55.479a.892.892,0,1,0,0-1.784H40.892a.892.892,0,0,0-.892.892V65.064a.892.892,0,0,0,.892.892H77.648a.892.892,0,0,0,.892-.892V40.976A.892.892,0,0,0,77.648,40.084Z" transform="translate(-40 -40.084)" fill="#ffa726"/>
    </g>
  </g>
  <g id="Grupo_31410" data-name="Grupo 31410" transform="translate(22.125 3.576)">
    <g id="Grupo_31409" data-name="Grupo 31409">
      <path id="Trazado_29945" data-name="Trazado 29945" d="M249.523,40.342a.893.893,0,1,0,.261.631A.9.9,0,0,0,249.523,40.342Z" transform="translate(-248 -40.081)" fill="#ffa726"/>
    </g>
  </g>
</svg>
