<svg xmlns="http://www.w3.org/2000/svg" width="60.814" height="111.719" viewBox="0 0 60.814 111.719">
  <g id="Grupo_29495" data-name="Grupo 29495" transform="translate(0)">
    <g id="Grupo_28961" data-name="Grupo 28961" transform="translate(0.649 97.764)">
      <g id="Grupo_28930" data-name="Grupo 28930" transform="translate(33.126)">
        <path id="Trazado_28285" data-name="Trazado 28285" d="M648.62-106.142l.919.531a.407.407,0,0,0,.367-.016l.866-.5c.108-.063.121-.158.026-.212l-.918-.53a.41.41,0,0,0-.367.015l-.867.5C648.538-106.291,648.527-106.2,648.62-106.142Z" transform="translate(-648.557 106.905)" fill="#150035"/>
      </g>
      <g id="Grupo_28931" data-name="Grupo 28931" transform="translate(30.989 1.234)">
        <path id="Trazado_28286" data-name="Trazado 28286" d="M646.729-105.05l.919.531a.407.407,0,0,0,.367-.016l.866-.5c.109-.063.12-.158.026-.212l-.919-.53a.41.41,0,0,0-.367.015l-.866.5C646.647-105.2,646.635-105.1,646.729-105.05Z" transform="translate(-646.665 105.813)" fill="#150035"/>
      </g>
      <g id="Grupo_28932" data-name="Grupo 28932" transform="translate(33.241 2.534)">
        <path id="Trazado_28287" data-name="Trazado 28287" d="M648.721-103.9l.919.53a.41.41,0,0,0,.367-.015l.866-.5c.11-.062.121-.157.027-.211l-.919-.531a.407.407,0,0,0-.367.016l-.866.5C648.64-104.048,648.628-103.953,648.721-103.9Z" transform="translate(-648.658 104.663)" fill="#150035"/>
      </g>
      <g id="Grupo_28933" data-name="Grupo 28933" transform="translate(28.851 2.468)">
        <path id="Trazado_28288" data-name="Trazado 28288" d="M644.837-103.958l.919.531a.407.407,0,0,0,.367-.016l.866-.5c.11-.063.121-.158.027-.212l-.919-.53a.41.41,0,0,0-.367.015l-.866.5C644.755-104.107,644.744-104.012,644.837-103.958Z" transform="translate(-644.774 104.721)" fill="#150035"/>
      </g>
      <g id="Grupo_28934" data-name="Grupo 28934" transform="translate(31.103 3.768)">
        <path id="Trazado_28289" data-name="Trazado 28289" d="M646.83-102.807l.919.53a.41.41,0,0,0,.367-.015l.866-.5c.108-.062.121-.157.026-.211l-.918-.531a.407.407,0,0,0-.367.016l-.867.5C646.748-102.956,646.737-102.861,646.83-102.807Z" transform="translate(-646.767 103.571)" fill="#150035"/>
      </g>
      <g id="Grupo_28935" data-name="Grupo 28935" transform="translate(26.589 3.774)">
        <path id="Trazado_28290" data-name="Trazado 28290" d="M642.836-102.8l.919.53a.41.41,0,0,0,.367-.015l.866-.5c.109-.062.121-.157.026-.211l-.919-.531a.407.407,0,0,0-.367.016l-.866.5C642.754-102.951,642.743-102.856,642.836-102.8Z" transform="translate(-642.773 103.566)" fill="#150035"/>
      </g>
      <g id="Grupo_28936" data-name="Grupo 28936" transform="translate(28.841 5.075)">
        <path id="Trazado_28291" data-name="Trazado 28291" d="M644.83-101.652l.918.531a.407.407,0,0,0,.367-.016l.867-.5c.109-.063.12-.158.026-.212l-.919-.53a.41.41,0,0,0-.367.015l-.866.5C644.747-101.8,644.734-101.706,644.83-101.652Z" transform="translate(-644.766 102.415)" fill="#150035"/>
      </g>
      <g id="Grupo_28937" data-name="Grupo 28937" transform="translate(24.451 5.008)">
        <path id="Trazado_28292" data-name="Trazado 28292" d="M640.944-101.71l.919.53a.411.411,0,0,0,.367-.015l.867-.5c.108-.062.12-.157.026-.211l-.919-.531a.407.407,0,0,0-.367.016l-.866.5C640.863-101.859,640.851-101.764,640.944-101.71Z" transform="translate(-640.881 102.474)" fill="#150035"/>
      </g>
      <g id="Grupo_28938" data-name="Grupo 28938" transform="translate(26.703 6.309)">
        <path id="Trazado_28293" data-name="Trazado 28293" d="M642.937-100.56l.919.531a.407.407,0,0,0,.367-.016l.866-.5c.108-.063.121-.158.027-.212l-.919-.53a.411.411,0,0,0-.367.015l-.866.5C642.855-100.709,642.844-100.614,642.937-100.56Z" transform="translate(-642.874 101.323)" fill="#150035"/>
      </g>
      <g id="Grupo_28939" data-name="Grupo 28939" transform="translate(22.313 6.242)">
        <path id="Trazado_28294" data-name="Trazado 28294" d="M639.053-100.618l.919.53a.41.41,0,0,0,.367-.015l.866-.5c.109-.062.121-.157.026-.211l-.918-.531a.407.407,0,0,0-.367.016l-.867.5C638.971-100.767,638.96-100.672,639.053-100.618Z" transform="translate(-638.99 101.382)" fill="#150035"/>
      </g>
      <g id="Grupo_28940" data-name="Grupo 28940" transform="translate(24.566 7.543)">
        <path id="Trazado_28295" data-name="Trazado 28295" d="M641.046-99.468l.919.531a.407.407,0,0,0,.367-.016l.866-.5c.109-.063.121-.158.026-.212l-.919-.53a.41.41,0,0,0-.367.015l-.866.5C640.964-99.617,640.953-99.522,641.046-99.468Z" transform="translate(-640.983 100.231)" fill="#150035"/>
      </g>
      <g id="Grupo_28941" data-name="Grupo 28941" transform="translate(20.051 7.549)">
        <path id="Trazado_28296" data-name="Trazado 28296" d="M637.052-99.463l.918.531a.409.409,0,0,0,.368-.016l.866-.5c.108-.063.12-.158.026-.212l-.919-.53a.411.411,0,0,0-.367.015l-.866.5C636.97-99.612,636.958-99.517,637.052-99.463Z" transform="translate(-636.988 100.226)" fill="#150035"/>
      </g>
      <g id="Grupo_28942" data-name="Grupo 28942" transform="translate(22.303 8.849)">
        <path id="Trazado_28297" data-name="Trazado 28297" d="M639.044-98.312l.919.53a.41.41,0,0,0,.367-.015l.866-.5c.11-.062.121-.157.027-.211l-.919-.531a.407.407,0,0,0-.367.016l-.866.5C638.962-98.461,638.951-98.366,639.044-98.312Z" transform="translate(-638.981 99.076)" fill="#150035"/>
      </g>
      <g id="Grupo_28943" data-name="Grupo 28943" transform="translate(17.913 8.783)">
        <path id="Trazado_28298" data-name="Trazado 28298" d="M635.16-98.371l.919.531a.407.407,0,0,0,.367-.016l.866-.5c.11-.063.121-.158.027-.213l-.919-.53a.411.411,0,0,0-.367.015l-.866.5C635.078-98.52,635.067-98.425,635.16-98.371Z" transform="translate(-635.097 99.134)" fill="#150035"/>
      </g>
      <g id="Grupo_28944" data-name="Grupo 28944" transform="translate(20.166 10.083)">
        <path id="Trazado_28299" data-name="Trazado 28299" d="M637.153-97.22l.919.53a.41.41,0,0,0,.367-.015l.866-.5c.108-.062.121-.157.026-.211l-.918-.531a.409.409,0,0,0-.368.016l-.866.5C637.071-97.369,637.06-97.274,637.153-97.22Z" transform="translate(-637.09 97.984)" fill="#150035"/>
      </g>
      <g id="Grupo_28945" data-name="Grupo 28945" transform="translate(15.776 10.017)">
        <path id="Trazado_28300" data-name="Trazado 28300" d="M633.269-97.279l.919.531a.407.407,0,0,0,.367-.016l.866-.5c.109-.063.121-.158.026-.212l-.919-.53a.41.41,0,0,0-.367.015l-.866.5C633.187-97.428,633.176-97.333,633.269-97.279Z" transform="translate(-633.206 98.042)" fill="#150035"/>
      </g>
      <g id="Grupo_28946" data-name="Grupo 28946" transform="translate(18.028 11.317)">
        <path id="Trazado_28301" data-name="Trazado 28301" d="M635.263-96.128l.918.53a.41.41,0,0,0,.367-.015l.867-.5c.109-.062.12-.157.026-.211l-.919-.531a.407.407,0,0,0-.367.016l-.866.5C635.18-96.277,635.168-96.182,635.263-96.128Z" transform="translate(-635.199 96.892)" fill="#150035"/>
      </g>
      <g id="Grupo_28947" data-name="Grupo 28947" transform="translate(13.514 11.323)">
        <path id="Trazado_28302" data-name="Trazado 28302" d="M631.267-96.123l.919.53a.41.41,0,0,0,.367-.015l.866-.5c.11-.062.121-.157.027-.211l-.919-.53a.4.4,0,0,0-.367.015l-.866.5C631.186-96.272,631.174-96.177,631.267-96.123Z" transform="translate(-631.204 96.887)" fill="#150035"/>
      </g>
      <g id="Grupo_28948" data-name="Grupo 28948" transform="translate(15.766 12.624)">
        <path id="Trazado_28303" data-name="Trazado 28303" d="M633.26-94.973l.919.531a.407.407,0,0,0,.367-.016l.866-.5c.109-.063.121-.158.026-.212l-.918-.53a.41.41,0,0,0-.367.015l-.867.5C633.178-95.122,633.167-95.027,633.26-94.973Z" transform="translate(-633.197 95.736)" fill="#150035"/>
      </g>
      <g id="Grupo_28949" data-name="Grupo 28949" transform="translate(11.261 10.023)">
        <path id="Trazado_28304" data-name="Trazado 28304" d="M629.275-97.273l.918.53a.409.409,0,0,0,.368-.016l.866-.5c.109-.063.12-.158.026-.212l-.919-.53a.41.41,0,0,0-.367.015l-.866.5C629.193-97.423,629.18-97.328,629.275-97.273Z" transform="translate(-629.211 98.037)" fill="#150035"/>
      </g>
      <g id="Grupo_28950" data-name="Grupo 28950" transform="translate(9.009 8.722)">
        <path id="Trazado_28305" data-name="Trazado 28305" d="M627.282-98.424l.919.53a.41.41,0,0,0,.367-.015l.866-.5c.108-.062.121-.157.026-.211l-.918-.53a.406.406,0,0,0-.369.015l-.866.5C627.2-98.573,627.189-98.478,627.282-98.424Z" transform="translate(-627.219 99.188)" fill="#150035"/>
      </g>
      <g id="Grupo_28951" data-name="Grupo 28951" transform="translate(6.757 7.422)">
        <path id="Trazado_28306" data-name="Trazado 28306" d="M625.289-99.574l.919.53a.407.407,0,0,0,.367-.016l.866-.5c.109-.063.121-.158.027-.213l-.919-.53a.407.407,0,0,0-.367.016l-.866.5C625.207-99.724,625.2-99.629,625.289-99.574Z" transform="translate(-625.226 100.338)" fill="#150035"/>
      </g>
      <g id="Grupo_28952" data-name="Grupo 28952" transform="translate(4.505 6.122)">
        <path id="Trazado_28307" data-name="Trazado 28307" d="M623.3-100.725l.918.53a.41.41,0,0,0,.367-.015l.867-.5c.109-.063.12-.158.026-.212l-.919-.53a.4.4,0,0,0-.367.015l-.866.5C623.215-100.874,623.2-100.779,623.3-100.725Z" transform="translate(-623.233 101.489)" fill="#150035"/>
      </g>
      <g id="Grupo_28953" data-name="Grupo 28953" transform="translate(2.252 4.822)">
        <path id="Trazado_28308" data-name="Trazado 28308" d="M621.3-101.875l.919.53a.407.407,0,0,0,.367-.016l.866-.5c.109-.063.121-.158.026-.212l-.919-.53a.407.407,0,0,0-.367.016l-.866.5C621.222-102.025,621.21-101.93,621.3-101.875Z" transform="translate(-621.24 102.639)" fill="#150035"/>
      </g>
      <g id="Grupo_28954" data-name="Grupo 28954" transform="translate(0 3.521)">
        <path id="Trazado_28309" data-name="Trazado 28309" d="M619.311-103.026l.919.53a.411.411,0,0,0,.367-.015l.866-.5c.109-.063.121-.158.026-.213l-.918-.53a.4.4,0,0,0-.367.015l-.867.5C619.229-103.175,619.218-103.08,619.311-103.026Z" transform="translate(-619.248 103.79)" fill="#150035"/>
      </g>
      <g id="Grupo_28955" data-name="Grupo 28955" transform="translate(11.376 12.557)">
        <path id="Trazado_28310" data-name="Trazado 28310" d="M629.376-95.031l.919.53a.41.41,0,0,0,.367-.015l.866-.5c.109-.062.121-.157.026-.211l-.918-.531a.407.407,0,0,0-.367.016l-.867.5C629.294-95.18,629.283-95.085,629.376-95.031Z" transform="translate(-629.313 95.795)" fill="#150035"/>
      </g>
      <g id="Grupo_28956" data-name="Grupo 28956" transform="translate(9.123 11.257)">
        <path id="Trazado_28311" data-name="Trazado 28311" d="M627.383-96.182l.919.531a.407.407,0,0,0,.367-.016l.866-.5c.11-.063.121-.158.027-.212l-.919-.53a.41.41,0,0,0-.367.015l-.866.5C627.3-96.331,627.29-96.236,627.383-96.182Z" transform="translate(-627.32 96.945)" fill="#150035"/>
      </g>
      <g id="Grupo_28957" data-name="Grupo 28957" transform="translate(6.871 9.957)">
        <path id="Trazado_28312" data-name="Trazado 28312" d="M625.391-97.332l.918.53a.41.41,0,0,0,.367-.015l.867-.5c.108-.062.12-.157.026-.211l-.919-.53a.4.4,0,0,0-.367.015l-.866.5C625.309-97.481,625.3-97.386,625.391-97.332Z" transform="translate(-625.327 98.096)" fill="#150035"/>
      </g>
      <g id="Grupo_28958" data-name="Grupo 28958" transform="translate(4.619 8.657)">
        <path id="Trazado_28313" data-name="Trazado 28313" d="M623.4-98.482l.919.53a.407.407,0,0,0,.367-.016l.866-.5c.109-.063.121-.158.026-.212l-.919-.53a.411.411,0,0,0-.367.015l-.866.5C623.316-98.632,623.3-98.537,623.4-98.482Z" transform="translate(-623.335 99.246)" fill="#150035"/>
      </g>
      <g id="Grupo_28959" data-name="Grupo 28959" transform="translate(2.367 7.356)">
        <path id="Trazado_28314" data-name="Trazado 28314" d="M621.405-99.633l.919.53a.41.41,0,0,0,.367-.015l.866-.5c.109-.062.121-.157.027-.211l-.919-.53a.4.4,0,0,0-.367.015l-.866.5C621.323-99.782,621.312-99.687,621.405-99.633Z" transform="translate(-621.342 100.397)" fill="#150035"/>
      </g>
      <g id="Grupo_28960" data-name="Grupo 28960" transform="translate(0.115 6.056)">
        <path id="Trazado_28315" data-name="Trazado 28315" d="M619.412-100.783l.919.53a.407.407,0,0,0,.367-.016l.866-.5c.11-.063.121-.158.027-.212l-.919-.53a.407.407,0,0,0-.367.016l-.866.5C619.331-100.933,619.319-100.838,619.412-100.783Z" transform="translate(-619.349 101.547)" fill="#150035"/>
      </g>
    </g>
    <g id="Grupo_28981" data-name="Grupo 28981" transform="translate(38.447 98.263)">
      <g id="Grupo_28962" data-name="Grupo 28962" transform="translate(19.947)">
        <path id="Trazado_28316" data-name="Trazado 28316" d="M670.4-105.7l.919.531a.407.407,0,0,0,.367-.016l.866-.5c.108-.063.121-.158.026-.212l-.918-.53a.413.413,0,0,0-.368.015l-.866.5C670.32-105.849,670.309-105.754,670.4-105.7Z" transform="translate(-670.339 106.463)" fill="#150035"/>
      </g>
      <g id="Grupo_28963" data-name="Grupo 28963" transform="translate(17.809 1.234)">
        <path id="Trazado_28317" data-name="Trazado 28317" d="M668.511-104.608l.918.531a.41.41,0,0,0,.369-.016l.866-.5c.108-.063.12-.158.026-.212l-.919-.53a.41.41,0,0,0-.367.015l-.866.5C668.429-104.757,668.417-104.662,668.511-104.608Z" transform="translate(-668.447 105.371)" fill="#150035"/>
      </g>
      <g id="Grupo_28964" data-name="Grupo 28964" transform="translate(20.061 2.534)">
        <path id="Trazado_28318" data-name="Trazado 28318" d="M670.5-103.457l.919.53a.41.41,0,0,0,.367-.015l.866-.5c.11-.062.121-.157.027-.211l-.919-.531a.407.407,0,0,0-.367.016l-.866.5C670.421-103.606,670.41-103.511,670.5-103.457Z" transform="translate(-670.44 104.221)" fill="#150035"/>
      </g>
      <g id="Grupo_28965" data-name="Grupo 28965" transform="translate(15.547 2.54)">
        <path id="Trazado_28319" data-name="Trazado 28319" d="M666.509-103.452l.919.53a.41.41,0,0,0,.367-.015l.866-.5c.108-.063.121-.158.026-.212l-.918-.53a.4.4,0,0,0-.367.015l-.867.5C666.427-103.6,666.416-103.506,666.509-103.452Z" transform="translate(-666.446 104.216)" fill="#150035"/>
      </g>
      <g id="Grupo_28966" data-name="Grupo 28966" transform="translate(17.799 3.841)">
        <path id="Trazado_28320" data-name="Trazado 28320" d="M668.5-102.3l.919.53a.407.407,0,0,0,.367-.016l.866-.5c.108-.063.121-.158.026-.212l-.919-.53a.407.407,0,0,0-.367.016l-.866.5C668.42-102.451,668.408-102.356,668.5-102.3Z" transform="translate(-668.439 103.065)" fill="#150035"/>
      </g>
      <g id="Grupo_28967" data-name="Grupo 28967" transform="translate(13.409 3.774)">
        <path id="Trazado_28321" data-name="Trazado 28321" d="M664.618-102.36l.919.53a.411.411,0,0,0,.367-.015l.866-.5c.109-.062.12-.157.026-.211l-.919-.53a.4.4,0,0,0-.367.015l-.866.5C664.536-102.509,664.523-102.414,664.618-102.36Z" transform="translate(-664.554 103.124)" fill="#150035"/>
      </g>
      <g id="Grupo_28968" data-name="Grupo 28968" transform="translate(15.661 5.075)">
        <path id="Trazado_28322" data-name="Trazado 28322" d="M666.61-101.209l.919.53a.407.407,0,0,0,.367-.016l.866-.5c.11-.063.121-.158.027-.213l-.919-.53a.41.41,0,0,0-.367.015l-.866.5C666.529-101.359,666.516-101.264,666.61-101.209Z" transform="translate(-666.547 101.973)" fill="#150035"/>
      </g>
      <g id="Grupo_28969" data-name="Grupo 28969" transform="translate(11.271 5.008)">
        <path id="Trazado_28323" data-name="Trazado 28323" d="M662.726-101.268l.919.53a.41.41,0,0,0,.367-.015l.866-.5c.11-.062.121-.157.027-.211l-.919-.53a.4.4,0,0,0-.367.015l-.866.5C662.644-101.417,662.633-101.322,662.726-101.268Z" transform="translate(-662.663 102.032)" fill="#150035"/>
      </g>
      <g id="Grupo_28970" data-name="Grupo 28970" transform="translate(13.523 6.309)">
        <path id="Trazado_28324" data-name="Trazado 28324" d="M664.719-100.118l.919.531a.407.407,0,0,0,.367-.016l.866-.5c.108-.063.121-.158.026-.212l-.918-.53a.411.411,0,0,0-.367.015l-.867.5C664.637-100.267,664.626-100.172,664.719-100.118Z" transform="translate(-664.656 100.881)" fill="#150035"/>
      </g>
      <g id="Grupo_28971" data-name="Grupo 28971" transform="translate(9.009 6.315)">
        <path id="Trazado_28325" data-name="Trazado 28325" d="M660.725-100.112l.919.53a.407.407,0,0,0,.367-.016l.866-.5c.109-.063.121-.158.026-.212l-.919-.53a.407.407,0,0,0-.367.016l-.866.5C660.643-100.262,660.632-100.167,660.725-100.112Z" transform="translate(-660.662 100.876)" fill="#150035"/>
      </g>
      <g id="Grupo_28972" data-name="Grupo 28972" transform="translate(11.261 7.615)">
        <path id="Trazado_28326" data-name="Trazado 28326" d="M662.718-98.962l.918.53a.41.41,0,0,0,.367-.015l.867-.5c.108-.063.12-.158.026-.212l-.919-.53a.4.4,0,0,0-.367.015l-.866.5C662.636-99.111,662.623-99.016,662.718-98.962Z" transform="translate(-662.654 99.726)" fill="#150035"/>
      </g>
      <g id="Grupo_28973" data-name="Grupo 28973" transform="translate(6.757 5.014)">
        <path id="Trazado_28327" data-name="Trazado 28327" d="M658.732-101.263l.919.53a.41.41,0,0,0,.367-.015l.866-.5c.109-.063.121-.158.027-.212l-.919-.53a.406.406,0,0,0-.367.015l-.866.5C658.65-101.412,658.639-101.317,658.732-101.263Z" transform="translate(-658.669 102.027)" fill="#150035"/>
      </g>
      <g id="Grupo_28974" data-name="Grupo 28974" transform="translate(4.505 3.714)">
        <path id="Trazado_28328" data-name="Trazado 28328" d="M656.739-102.413l.919.53a.407.407,0,0,0,.367-.016l.866-.5c.11-.062.121-.158.027-.212l-.919-.53a.407.407,0,0,0-.367.016l-.866.5C656.658-102.563,656.646-102.468,656.739-102.413Z" transform="translate(-656.676 103.177)" fill="#150035"/>
      </g>
      <g id="Grupo_28975" data-name="Grupo 28975" transform="translate(2.252 2.414)">
        <path id="Trazado_28329" data-name="Trazado 28329" d="M654.747-103.564l.919.53a.41.41,0,0,0,.367-.015l.866-.5c.109-.063.12-.158.026-.212l-.919-.53a.407.407,0,0,0-.367.015l-.866.5C654.665-103.713,654.652-103.618,654.747-103.564Z" transform="translate(-654.683 104.328)" fill="#150035"/>
      </g>
      <g id="Grupo_28976" data-name="Grupo 28976" transform="translate(0 1.113)">
        <path id="Trazado_28330" data-name="Trazado 28330" d="M652.754-104.714l.919.53a.408.408,0,0,0,.367-.016l.866-.5c.109-.062.121-.158.026-.212l-.918-.53a.407.407,0,0,0-.367.016l-.867.5C652.672-104.864,652.661-104.769,652.754-104.714Z" transform="translate(-652.691 105.478)" fill="#150035"/>
      </g>
      <g id="Grupo_28977" data-name="Grupo 28977" transform="translate(6.871 7.549)">
        <path id="Trazado_28331" data-name="Trazado 28331" d="M658.834-99.02l.918.53a.407.407,0,0,0,.367-.016l.867-.5c.109-.063.12-.158.026-.213l-.919-.53a.407.407,0,0,0-.367.016l-.866.5C658.752-99.17,658.739-99.075,658.834-99.02Z" transform="translate(-658.77 99.784)" fill="#150035"/>
      </g>
      <g id="Grupo_28978" data-name="Grupo 28978" transform="translate(4.619 6.248)">
        <path id="Trazado_28332" data-name="Trazado 28332" d="M656.841-100.171l.919.53a.41.41,0,0,0,.367-.015l.866-.5c.109-.063.12-.158.026-.212l-.919-.53a.4.4,0,0,0-.367.015l-.866.5C656.759-100.32,656.747-100.225,656.841-100.171Z" transform="translate(-656.778 100.935)" fill="#150035"/>
      </g>
      <g id="Grupo_28979" data-name="Grupo 28979" transform="translate(2.367 4.948)">
        <path id="Trazado_28333" data-name="Trazado 28333" d="M654.848-101.321l.919.53a.407.407,0,0,0,.367-.016l.866-.5c.109-.063.121-.158.026-.213l-.918-.53a.407.407,0,0,0-.367.016l-.867.5C654.766-101.471,654.755-101.376,654.848-101.321Z" transform="translate(-654.785 102.085)" fill="#150035"/>
      </g>
      <g id="Grupo_28980" data-name="Grupo 28980" transform="translate(0.114 3.648)">
        <path id="Trazado_28334" data-name="Trazado 28334" d="M652.855-102.472l.919.53a.41.41,0,0,0,.367-.015l.866-.5c.11-.063.121-.158.027-.212l-.919-.53a.4.4,0,0,0-.367.015l-.866.5C652.773-102.621,652.762-102.526,652.855-102.472Z" transform="translate(-652.792 103.236)" fill="#150035"/>
      </g>
    </g>
    <g id="Grupo_29053" data-name="Grupo 29053">
      <g id="Grupo_28986" data-name="Grupo 28986" transform="translate(26.587 28.524)">
        <g id="Grupo_28982" data-name="Grupo 28982" transform="translate(0 1.92)">
          <path id="Trazado_28335" data-name="Trazado 28335" d="M665.187-108.672c0-.015,0-52.219,0-52.59a.082.082,0,0,0-.063-.08l-10.162.911-.02-.009-.931-5.606a.091.091,0,0,0-.087,0l-9.356,5.369a.086.086,0,0,1-.067.008l-1.788-.5a.085.085,0,0,0-.11.08c0,.458,0,52.448.007,52.5l0,.016a.986.986,0,0,0,.486.762l9.426,5.467a2.591,2.591,0,0,0,2.6,0l9.563-5.487a.987.987,0,0,0,.5-.828Z" transform="translate(-642.144 166.521)" fill="#ffb000"/>
          <path id="Trazado_28336" data-name="Trazado 28336" d="M653.884-101.478a3.057,3.057,0,0,1-1.535-.413l-9.426-5.466a1.45,1.45,0,0,1-.714-1.114c-.006-.061-.007-.076-.01-37.272,0-8.5,0-15.127,0-15.289a.545.545,0,0,1,.216-.437.552.552,0,0,1,.482-.093l1.637.457,9.221-5.29a.55.55,0,0,1,.546,0l.192.11.9,5.409,9.837-.882.083.023a.544.544,0,0,1,.4.526c0,.472,0,52.583,0,52.6l-.006.064a1.434,1.434,0,0,1-.725,1.171l-9.564,5.487A3.043,3.043,0,0,1,653.884-101.478Zm-10.759-59.058c0,1.706,0,7.576,0,14.793,0,15.587,0,36.937,0,37.2a.527.527,0,0,0,.258.383l9.426,5.467a2.131,2.131,0,0,0,2.133,0l9.564-5.487a.532.532,0,0,0,.265-.444h0c0-.255,0-47.209,0-52.167l-9.8.877-.208-.071-.2-.109-.867-5.214-9.025,5.178-.253-.044Z" transform="translate(-642.197 166.468)" fill="#150035"/>
        </g>
        <g id="Grupo_28983" data-name="Grupo 28983" transform="translate(11.145 6.632)">
          <path id="Trazado_28337" data-name="Trazado 28337" d="M663.844-161.883l-10.162.911-.02-.008-1.189,3.462,0,54.98a2.576,2.576,0,0,0,1.373-.342l9.563-5.487a.987.987,0,0,0,.5-.828l0-.016c0-.015,0-52.219,0-52.59A.083.083,0,0,0,663.844-161.883Z" transform="translate(-652.005 162.352)" fill="#150035"/>
          <path id="Trazado_28338" data-name="Trazado 28338" d="M652.6-102.02h-.093l-.45-.014.029-55.58,1.377-4.009.376.231,10.1-.905.083.023a.544.544,0,0,1,.4.527c0,.471,0,52.583,0,52.6a1.471,1.471,0,0,1-.73,1.234l-9.564,5.488A3.047,3.047,0,0,1,652.6-102.02Zm.389-55.366,0,54.406a2.091,2.091,0,0,0,.678-.248l9.564-5.488a.53.53,0,0,0,.265-.444c0-.159.006-47.2.006-52.167l-9.445.847Z" transform="translate(-652.058 162.298)" fill="#150035"/>
        </g>
        <g id="Grupo_28984" data-name="Grupo 28984" transform="translate(0 6.76)">
          <path id="Trazado_28339" data-name="Trazado 28339" d="M644.056-160.445s.14-.379.314-.867l-1.653-.46a.085.085,0,0,0-.11.08c0,.458,0,52.448.007,52.5l0,.016a.986.986,0,0,0,.486.762l.949.553,0-50.286Z" transform="translate(-642.144 162.239)" fill="#150035"/>
          <path id="Trazado_28340" data-name="Trazado 28340" d="M644.568-107l-1.646-.957a1.447,1.447,0,0,1-.714-1.113c-.006-.061-.007-.076-.01-37.272,0-8.5,0-15.127,0-15.289a.543.543,0,0,1,.217-.437.546.546,0,0,1,.48-.092l2.134.593-.167.469c-.129.358-.238.658-.288.793Zm-1.443-54.135c0,1.706,0,7.576,0,14.793,0,15.587,0,36.936,0,37.2a.528.528,0,0,0,.258.383l.253.148,0-51.86.029-.078s.056-.155.144-.392Z" transform="translate(-642.197 162.185)" fill="#150035"/>
        </g>
        <g id="Grupo_28985" data-name="Grupo 28985">
          <path id="Trazado_28341" data-name="Trazado 28341" d="M652.576-154.68l-9.469-5.492a1,1,0,0,1,0-1.736l9.606-5.513a2.505,2.505,0,0,1,2.511,0l9.469,5.492a1,1,0,0,1,0,1.737l-9.606,5.512A2.506,2.506,0,0,1,652.576-154.68Z" transform="translate(-642.144 168.219)" fill="#fff"/>
          <path id="Trazado_28342" data-name="Trazado 28342" d="M653.888-153.825a2.972,2.972,0,0,1-1.492-.4l-9.469-5.492a1.453,1.453,0,0,1-.73-1.272,1.455,1.455,0,0,1,.732-1.268l9.608-5.513a2.976,2.976,0,0,1,2.975.006l9.469,5.491a1.456,1.456,0,0,1,.73,1.271,1.454,1.454,0,0,1-.734,1.268l-9.607,5.513A2.975,2.975,0,0,1,653.888-153.825Zm.132-13.414a2.041,2.041,0,0,0-1.021.272l-9.607,5.513a.531.531,0,0,0-.269.466.531.531,0,0,0,.269.468l9.469,5.492a2.042,2.042,0,0,0,2.046,0l9.608-5.513a.533.533,0,0,0,.269-.466.531.531,0,0,0-.269-.468l-9.469-5.492A2.039,2.039,0,0,0,654.021-167.239Z" transform="translate(-642.197 168.166)" fill="#150035"/>
        </g>
      </g>
      <g id="Grupo_28997" data-name="Grupo 28997" transform="translate(24.482)">
        <g id="Grupo_28991" data-name="Grupo 28991" transform="translate(1.977 22.18)">
          <g id="Grupo_28987" data-name="Grupo 28987" transform="translate(0.003 1.919)">
            <path id="Trazado_28343" data-name="Trazado 28343" d="M642.5-164.044c0-.015,0-2.459,0-2.832a.082.082,0,0,1,.063-.079l10.162.911.02-.009.931-5.606a.086.086,0,0,1,.087,0l9.356,5.368a.086.086,0,0,0,.067.009l1.788-.5a.086.086,0,0,1,.11.081c0,.457,0,2.689-.009,2.74v.016a.986.986,0,0,1-.486.762l-9.426,5.467a2.592,2.592,0,0,1-2.6,0L643-163.2a.991.991,0,0,1-.5-.828Z" transform="translate(-642.034 172.135)" fill="#ffb000"/>
            <path id="Trazado_28344" data-name="Trazado 28344" d="M653.911-156.85a3.039,3.039,0,0,1-1.527-.409l-9.563-5.486a1.458,1.458,0,0,1-.728-1.21l0-.025c0-.014,0-2.468,0-2.843a.544.544,0,0,1,.4-.526l.082-.024,9.836.883.9-5.407.188-.11a.551.551,0,0,1,.555,0l9.216,5.287,1.637-.455a.548.548,0,0,1,.483.093.54.54,0,0,1,.215.437l0,.688c0,2.033,0,2.052-.008,2.091a1.463,1.463,0,0,1-.717,1.136l-9.426,5.467A3.058,3.058,0,0,1,653.911-156.85Zm-10.894-7.16a.548.548,0,0,0,.268.461l9.562,5.487a2.13,2.13,0,0,0,2.134,0l9.426-5.467a.525.525,0,0,0,.258-.409c0-.088,0-1.225.006-2.019v-.19l-1.5.417-.234-.1-8.859-5.082-.864,5.2-.4.193-9.806-.879C643.015-165.633,643.016-164.175,643.016-164.01Z" transform="translate(-642.087 172.081)" fill="#150035"/>
          </g>
          <g id="Grupo_28988" data-name="Grupo 28988" transform="translate(0.003 6.632)">
            <path id="Trazado_28345" data-name="Trazado 28345" d="M642.56-167.5l10.162.911.02-.009,1.189,3.463,0,5.221a2.577,2.577,0,0,1-1.373-.342L643-163.74a.991.991,0,0,1-.5-.829v-.016c0-.015,0-2.459,0-2.831A.082.082,0,0,1,642.56-167.5Z" transform="translate(-642.034 167.965)" fill="#150035"/>
            <path id="Trazado_28346" data-name="Trazado 28346" d="M653.908-157.392a3.035,3.035,0,0,1-1.525-.406l-9.563-5.486a1.46,1.46,0,0,1-.728-1.212c0-.038-.006-2.493-.006-2.866a.544.544,0,0,1,.4-.527l.082-.023,10.115.906.374-.2,1.389,4.125,0,5.67-.45.014Zm-10.894-9.549c0,.8,0,2.357,0,2.406a.543.543,0,0,0,.268.448l9.562,5.486a2.086,2.086,0,0,0,.678.249l0-4.646-1.062-3.1Z" transform="translate(-642.087 167.911)" fill="#150035"/>
          </g>
          <g id="Grupo_28989" data-name="Grupo 28989" transform="translate(20.684 6.759)">
            <path id="Trazado_28347" data-name="Trazado 28347" d="M661.234-166.059s-.14-.379-.315-.866l1.655-.461a.086.086,0,0,1,.11.081c0,.457,0,2.689-.009,2.74v.016a.986.986,0,0,1-.486.762l-.951.553,0-.527Z" transform="translate(-660.315 167.852)" fill="#150035"/>
            <path id="Trazado_28348" data-name="Trazado 28348" d="M660.847-162.378l-.008-3.543c-.051-.137-.161-.436-.288-.795l-.167-.468,2.134-.595a.555.555,0,0,1,.483.093.541.541,0,0,1,.215.437l0,.688c0,2.033,0,2.053-.008,2.091a1.459,1.459,0,0,1-.717,1.136Zm.746-4.181c.086.238.144.393.144.393l.029.16v2.02l.256-.149a.525.525,0,0,0,.258-.409c0-.088,0-1.225.006-2.019v-.19Z" transform="translate(-660.384 167.799)" fill="#150035"/>
          </g>
          <g id="Grupo_28990" data-name="Grupo 28990">
            <path id="Trazado_28349" data-name="Trazado 28349" d="M655.113-160.293l9.469-5.492a1,1,0,0,0,0-1.737l-9.606-5.512a2.506,2.506,0,0,0-2.511,0l-9.469,5.492a1,1,0,0,0,0,1.736l9.606,5.513A2.505,2.505,0,0,0,655.113-160.293Z" transform="translate(-642.031 173.832)" fill="#fff"/>
            <path id="Trazado_28350" data-name="Trazado 28350" d="M653.908-159.438a2.965,2.965,0,0,1-1.484-.4l-9.6-5.512a1.453,1.453,0,0,1-.735-1.268,1.453,1.453,0,0,1,.73-1.27l9.469-5.493a2.978,2.978,0,0,1,2.976,0l9.606,5.511a1.455,1.455,0,0,1,.733,1.269,1.452,1.452,0,0,1-.729,1.27l-9.47,5.492A2.964,2.964,0,0,1,653.908-159.438Zm-.133-13.414a2.048,2.048,0,0,0-1.025.275l-9.469,5.493a.525.525,0,0,0-.268.467.529.529,0,0,0,.269.467l9.606,5.512a2.044,2.044,0,0,0,2.047,0h0l9.47-5.492a.532.532,0,0,0,.268-.467.533.533,0,0,0-.27-.468l-9.6-5.511A2.035,2.035,0,0,0,653.774-172.852Z" transform="translate(-642.084 173.779)" fill="#150035"/>
          </g>
        </g>
        <g id="Grupo_28995" data-name="Grupo 28995">
          <g id="Grupo_28992" data-name="Grupo 28992">
            <path id="Trazado_28351" data-name="Trazado 28351" d="M643.408-154.623l23.861-16.487a2.232,2.232,0,0,0,.932-1.782l2.272-18.209c0-.687-2.689-2.153-3.2-1.856l-25.591,14.775a2.235,2.235,0,0,0-.932,1.782v19.361C640.745-156.353,642.893-154.326,643.408-154.623Z" transform="translate(-640.282 193.456)" fill="#fff"/>
            <path id="Trazado_28352" data-name="Trazado 28352" d="M643.337-154.078a1.56,1.56,0,0,1-.735-.243c-.779-.449-2.267-1.837-2.267-2.665v-19.361a2.709,2.709,0,0,1,1.164-2.184l25.591-14.775c.563-.324,1.7.235,2.326.6.719.415,1.573,1.039,1.573,1.66l-2.275,18.267a2.634,2.634,0,0,1-1.161,2.127l-23.86,16.486A.708.708,0,0,1,643.337-154.078Zm24.205-38.4a.313.313,0,0,0-.048,0l-25.532,14.751a1.785,1.785,0,0,0-.7,1.381v19.361a5.1,5.1,0,0,0,2.025,1.972l23.771-16.424a1.789,1.789,0,0,0,.732-1.4l2.266-18.195A5.165,5.165,0,0,0,667.542-192.483Z" transform="translate(-640.335 193.403)" fill="#150035"/>
          </g>
          <g id="Grupo_28993" data-name="Grupo 28993" transform="translate(2.272 1.556)">
            <path id="Trazado_28353" data-name="Trazado 28353" d="M643.688-154.882l25.591-14.775a2.232,2.232,0,0,0,.932-1.782V-190.8c0-.686-.417-1-.932-.705l-25.591,14.776a2.233,2.233,0,0,0-.932,1.782v19.36C642.755-154.9,643.172-154.584,643.688-154.882Z" transform="translate(-642.292 192.08)" fill="#ffb000"/>
            <path id="Trazado_28354" data-name="Trazado 28354" d="M643.369-154.253a.938.938,0,0,1-.47-.124,1.271,1.271,0,0,1-.554-1.156v-19.36a2.706,2.706,0,0,1,1.165-2.185l25.59-14.775a1.055,1.055,0,0,1,1.074-.049,1.27,1.27,0,0,1,.554,1.155v19.361a2.7,2.7,0,0,1-1.164,2.184l-25.591,14.775A1.213,1.213,0,0,1,643.369-154.253ZM669.7-191.1a.3.3,0,0,0-.139.051l-25.59,14.775a1.781,1.781,0,0,0-.7,1.381v19.36c0,.253.076.346.09.353s.058,0,.147-.049L669.1-170a1.785,1.785,0,0,0,.7-1.381v-19.361c0-.252-.076-.345-.09-.353Z" transform="translate(-642.345 192.026)" fill="#150035"/>
          </g>
          <g id="Grupo_28994" data-name="Grupo 28994" transform="translate(5.007 5.446)">
            <path id="Trazado_28355" data-name="Trazado 28355" d="M645.247-158.648,667.2-171.32a1.153,1.153,0,0,0,.481-.92v-15.923c0-.355-.215-.518-.481-.364l-21.95,12.672a1.154,1.154,0,0,0-.481.92v15.923C644.765-158.657,644.981-158.494,645.247-158.648Z" transform="translate(-644.765 188.585)" fill="#150035"/>
          </g>
        </g>
        <g id="Grupo_28996" data-name="Grupo 28996" transform="translate(6.215 17.233)">
          <path id="Trazado_28356" data-name="Trazado 28356" d="M646.484-162.695l-.65-.292,3.008-6.682h1.448l2.413-8.487,3.785,3.39,1.391-2,3.825,2.09,1.079-1.179,3.462,1.292L666-173.9l-3.011-1.124-1.132,1.237-3.753-2.051-1.486,2.139-3.536-3.167-2.248,7.908H649.3Z" transform="translate(-645.834 178.156)" fill="#ffb000"/>
        </g>
      </g>
      <g id="Grupo_29039" data-name="Grupo 29039" transform="translate(0 44.114)">
        <g id="Grupo_29035" data-name="Grupo 29035" transform="translate(2.25)">
          <g id="Grupo_29002" data-name="Grupo 29002" transform="translate(0.001 7.602)">
            <g id="Grupo_28998" data-name="Grupo 28998" transform="translate(0 2.158)">
              <path id="Trazado_28357" data-name="Trazado 28357" d="M652.483-104.145c0-.016,0-35.375,0-35.793a.093.093,0,0,0-.071-.089l-17.448,4.516a.079.079,0,0,1-.023-.009l4.979-9.795a.1.1,0,0,0-.1,0l-16.542,9.527a.1.1,0,0,1-.075.01l-2.01-.561a.1.1,0,0,0-.123.092c0,.513,0,35.632.009,35.69l0,.017a1.1,1.1,0,0,0,.546.856l10.6,6.145a2.911,2.911,0,0,0,2.919,0l16.775-9.661a1.115,1.115,0,0,0,.557-.931Z" transform="translate(-620.613 145.79)" fill="#ffb000"/>
              <path id="Trazado_28358" data-name="Trazado 28358" d="M633.745-92.629a3.368,3.368,0,0,1-1.7-.455l-10.6-6.145a1.572,1.572,0,0,1-.774-1.208c-.006-.064-.008-.083-.011-26.226,0-5.31,0-9.356,0-9.528a.555.555,0,0,1,.219-.445.569.569,0,0,1,.491-.094l1.864.519,16.409-9.45a.562.562,0,0,1,.559,0l.382.219-4.722,9.288,16.607-4.3.121.034a.554.554,0,0,1,.408.536c0,.357,0,35.778,0,35.8l-.006.069a1.562,1.562,0,0,1-.785,1.272L635.434-93.08A3.376,3.376,0,0,1,633.745-92.629Zm-12.153-43.079c0,1.242,0,4.726,0,9.044,0,10.315,0,25.9.007,26.151a.652.652,0,0,0,.318.483l10.6,6.144a2.455,2.455,0,0,0,2.455,0l16.775-9.662a.647.647,0,0,0,.326-.547h.466l-.463,0c0-.145,0-31,0-35.3l-17.066,4.418-.243-.088-.383-.219,4.513-8.877-15.33,8.828a.576.576,0,0,1-.429.054Z" transform="translate(-620.666 145.737)" fill="#150035"/>
            </g>
            <g id="Grupo_28999" data-name="Grupo 28999" transform="translate(12.529 7.445)">
              <path id="Trazado_28359" data-name="Trazado 28359" d="M650.972-140.635l-17.448,4.518-.023-.009-1.337,3.891,0,38.478a2.9,2.9,0,0,0,1.544-.385L650.48-103.8a1.112,1.112,0,0,0,.557-.93l0-.018c0-.016,0-35.374,0-35.793A.094.094,0,0,0,650.972-140.635Z" transform="translate(-631.698 141.114)" fill="#150035"/>
              <path id="Trazado_28360" data-name="Trazado 28360" d="M632.3-93.237h-.1l-.45-.014.028-39.078,1.519-4.422.341.194,17.39-4.5.119.033a.558.558,0,0,1,.411.537c0,.356,0,35.777,0,35.8a1.6,1.6,0,0,1-.791,1.34L633.99-93.685A3.366,3.366,0,0,1,632.3-93.237Zm.376-38.865,0,37.91a2.4,2.4,0,0,0,.849-.3L650.3-104.15a.648.648,0,0,0,.326-.547c0-.147.006-31,.006-35.3l-16.727,4.331Z" transform="translate(-631.751 141.059)" fill="#150035"/>
            </g>
            <g id="Grupo_29000" data-name="Grupo 29000" transform="translate(0 11.091)">
              <path id="Trazado_28361" data-name="Trazado 28361" d="M622.7-135.928s.158-.426.354-.974l-1.859-.518a.1.1,0,0,0-.123.092c0,.513,0,35.632.009,35.69l0,.017a1.1,1.1,0,0,0,.546.856l1.068.622,0-33.2Z" transform="translate(-620.613 137.887)" fill="#150035"/>
              <path id="Trazado_28362" data-name="Trazado 28362" d="M623.218-99.285l-1.764-1.026a1.572,1.572,0,0,1-.774-1.208c-.006-.064-.008-.083-.011-26.226,0-5.31,0-9.356,0-9.528a.556.556,0,0,1,.22-.446.565.565,0,0,1,.492-.093l2.337.651-.167.469c-.147.411-.272.754-.327.9Zm-1.625-37.505c0,1.242,0,4.726,0,9.044,0,10.315,0,25.9.007,26.152a.651.651,0,0,0,.318.481l.372.216,0-35.061.028-.077s.075-.2.183-.5Z" transform="translate(-620.666 137.833)" fill="#150035"/>
            </g>
            <g id="Grupo_29001" data-name="Grupo 29001">
              <path id="Trazado_28363" data-name="Trazado 28363" d="M632.281-129.046l-10.645-6.173a1.127,1.127,0,0,1,0-1.951l16.824-9.69a2.812,2.812,0,0,1,2.822,0l10.645,6.173a1.128,1.128,0,0,1,0,1.952l-16.823,9.69A2.814,2.814,0,0,1,632.281-129.046Z" transform="translate(-620.613 147.7)" fill="#fff"/>
              <path id="Trazado_28364" data-name="Trazado 28364" d="M633.749-128.148a3.277,3.277,0,0,1-1.647-.443l-10.645-6.173a1.574,1.574,0,0,1-.791-1.378,1.572,1.572,0,0,1,.795-1.376l16.824-9.691a3.289,3.289,0,0,1,3.287,0l10.645,6.173a1.578,1.578,0,0,1,.791,1.379,1.577,1.577,0,0,1-.795,1.376l-16.825,9.69A3.266,3.266,0,0,1,633.749-128.148Zm6.174-18.571a2.344,2.344,0,0,0-1.175.314l-16.824,9.69a.658.658,0,0,0-.331.574.66.66,0,0,0,.33.575l10.645,6.173a2.356,2.356,0,0,0,2.358,0l16.824-9.691a.656.656,0,0,0,.331-.574.66.66,0,0,0-.33-.575L641.106-146.4A2.344,2.344,0,0,0,639.923-146.719Z" transform="translate(-620.666 147.646)" fill="#150035"/>
            </g>
          </g>
          <g id="Grupo_29012" data-name="Grupo 29012">
            <g id="Grupo_29007" data-name="Grupo 29007">
              <g id="Grupo_29003" data-name="Grupo 29003" transform="translate(0 2.157)">
                <path id="Trazado_28365" data-name="Trazado 28365" d="M652.486-144.073v-2.591a.094.094,0,0,0-.071-.09l-17.448,4.518a.081.081,0,0,1-.023-.01l4.978-9.795a.1.1,0,0,0-.1,0l-16.542,9.528a.1.1,0,0,1-.075.009l-2.01-.559a.1.1,0,0,0-.123.09c0,.514.007,2.431.012,2.489l0,.017a1.1,1.1,0,0,0,.546.856l10.6,6.145a2.911,2.911,0,0,0,2.919,0l16.774-9.661a1.114,1.114,0,0,0,.558-.931Z" transform="translate(-620.612 152.518)" fill="#ffb000"/>
                <path id="Trazado_28366" data-name="Trazado 28366" d="M633.748-132.557a3.369,3.369,0,0,1-1.7-.456l-10.6-6.145a1.57,1.57,0,0,1-.774-1.209c0-.046-.01-.109-.017-2.551a.554.554,0,0,1,.22-.446.562.562,0,0,1,.492-.093l1.86.518,16.41-9.45a.557.557,0,0,1,.563,0l.376.22-4.72,9.285,16.607-4.3.121.035a.553.553,0,0,1,.408.536v2.6l-.006.069a1.56,1.56,0,0,1-.787,1.272l-16.775,9.661A3.372,3.372,0,0,1,633.748-132.557Zm-12.155-9.877c0,.73.007,1.871.01,1.979a.648.648,0,0,0,.319.5l10.6,6.144a2.451,2.451,0,0,0,2.456,0l16.775-9.661a.646.646,0,0,0,.326-.547h.466l-.464,0v-2.1l-17.057,4.415-.252-.086-.383-.218,4.513-8.878-15.33,8.828a.558.558,0,0,1-.429.054Z" transform="translate(-620.665 152.465)" fill="#150035"/>
              </g>
              <g id="Grupo_29004" data-name="Grupo 29004" transform="translate(12.532 7.445)">
                <path id="Trazado_28367" data-name="Trazado 28367" d="M650.97-147.361l-17.448,4.516a.082.082,0,0,1-.023-.009l-1.337,3.893v5.276a2.9,2.9,0,0,0,1.544-.385l16.774-9.661a1.111,1.111,0,0,0,.558-.93l0-.018v-2.592A.093.093,0,0,0,650.97-147.361Z" transform="translate(-631.7 147.841)" fill="#150035"/>
                <path id="Trazado_28368" data-name="Trazado 28368" d="M632.3-133.165h-.1l-.45-.014.025-5.876,1.518-4.423.342.2,17.391-4.5.121.034a.555.555,0,0,1,.408.536v2.6a1.6,1.6,0,0,1-.792,1.34l-16.775,9.661A3.366,3.366,0,0,1,632.3-133.165Zm.375-5.664v4.709a2.406,2.406,0,0,0,.849-.3l16.775-9.661a.648.648,0,0,0,.326-.547c0-.049,0-1.206,0-1.978v-.123l-16.727,4.331Z" transform="translate(-631.753 147.786)" fill="#150035"/>
              </g>
              <g id="Grupo_29005" data-name="Grupo 29005" transform="translate(0 11.092)">
                <path id="Trazado_28369" data-name="Trazado 28369" d="M622.7-142.655s.157-.425.354-.973l-1.859-.518a.1.1,0,0,0-.123.09c0,.514.007,2.431.012,2.489l0,.017a1.1,1.1,0,0,0,.546.856l1.068.622h0Z" transform="translate(-620.612 144.613)" fill="#150035"/>
                <path id="Trazado_28370" data-name="Trazado 28370" d="M623.221-139.213l-1.764-1.026a1.568,1.568,0,0,1-.774-1.209c0-.046-.01-.109-.017-2.552a.555.555,0,0,1,.219-.444.569.569,0,0,1,.491-.095l2.34.652-.167.469c-.147.41-.272.753-.327.9Zm-1.628-4.3c0,.731.007,1.872.01,1.979a.647.647,0,0,0,.319.5l.372.216.028-1.937s.073-.2.183-.5Z" transform="translate(-620.665 144.559)" fill="#150035"/>
              </g>
              <g id="Grupo_29006" data-name="Grupo 29006">
                <path id="Trazado_28371" data-name="Trazado 28371" d="M632.28-135.772l-10.645-6.173a1.128,1.128,0,0,1,0-1.952l16.824-9.69a2.817,2.817,0,0,1,2.822,0l10.644,6.173a1.128,1.128,0,0,1,0,1.952l-16.823,9.69A2.814,2.814,0,0,1,632.28-135.772Z" transform="translate(-620.612 154.426)" fill="#fff"/>
                <path id="Trazado_28372" data-name="Trazado 28372" d="M633.748-134.875a3.275,3.275,0,0,1-1.647-.442l-10.645-6.173a1.575,1.575,0,0,1-.791-1.379,1.572,1.572,0,0,1,.795-1.376l16.824-9.69a3.287,3.287,0,0,1,3.287,0l10.643,6.172a1.576,1.576,0,0,1,.792,1.379,1.576,1.576,0,0,1-.8,1.376l-16.824,9.691A3.277,3.277,0,0,1,633.748-134.875Zm6.175-18.571a2.352,2.352,0,0,0-1.175.314l-16.824,9.691a.654.654,0,0,0-.331.573.656.656,0,0,0,.33.575l10.645,6.173a2.351,2.351,0,0,0,2.357,0l16.825-9.69a.66.66,0,0,0,.331-.574.657.657,0,0,0-.331-.575L641.1-153.129A2.355,2.355,0,0,0,639.922-153.446Z" transform="translate(-620.665 154.373)" fill="#150035"/>
              </g>
            </g>
            <g id="Grupo_29009" data-name="Grupo 29009" transform="translate(0.519 0.86)">
              <g id="Grupo_29008" data-name="Grupo 29008">
                <path id="Trazado_28373" data-name="Trazado 28373" d="M621.951-147.149l10.526,6.063,10.47-5.908-10.425-6.144Z" transform="translate(-621.016 153.674)" fill="#fff"/>
                <path id="Trazado_28374" data-name="Trazado 28374" d="M632.582-140.492l-11.458-6.6,11.51-6.522,11.348,6.688Zm-9.589-6.593,9.594,5.526,9.541-5.382-9.5-5.6Z" transform="translate(-621.124 153.612)" fill="#150035"/>
              </g>
            </g>
            <g id="Grupo_29011" data-name="Grupo 29011" transform="translate(12.064 3.356)">
              <g id="Grupo_29010" data-name="Grupo 29010">
                <path id="Trazado_28375" data-name="Trazado 28375" d="M632.166-147.422l6.164,3.55,6.131-3.46-6.1-3.6Z" transform="translate(-631.231 151.465)" fill="#fff"/>
                <path id="Trazado_28376" data-name="Trazado 28376" d="M638.435-143.277l-7.1-4.087,7.13-4.04,7.028,4.142Zm-5.226-4.08,5.232,3.013,5.2-2.935-5.182-3.054Z" transform="translate(-631.339 151.403)" fill="#150035"/>
              </g>
            </g>
          </g>
          <g id="Grupo_29019" data-name="Grupo 29019" transform="translate(14.483 41.042)">
            <g id="Grupo_29013" data-name="Grupo 29013">
              <path id="Trazado_28377" data-name="Trazado 28377" d="M634.388-104.809a.819.819,0,0,1-.413-.108,1.155,1.155,0,0,1-.5-1.051v-2.163a2.554,2.554,0,0,1,1.1-2.062L647.93-117.9a.937.937,0,0,1,.956-.049,1.153,1.153,0,0,1,.5,1.05v2.164a2.554,2.554,0,0,1-1.1,2.06l-13.355,7.711A1.1,1.1,0,0,1,634.388-104.809Zm14.084-12.539a.421.421,0,0,0-.185.062l-13.355,7.711a1.866,1.866,0,0,0-.739,1.443v2.163c0,.244.07.393.139.433s.195-.019.244-.047l13.355-7.711a1.865,1.865,0,0,0,.738-1.443V-116.9c0-.244-.069-.393-.138-.433A.118.118,0,0,0,648.472-117.348Z" transform="translate(-633.479 118.061)" fill="#ffb000"/>
            </g>
            <g id="Grupo_29014" data-name="Grupo 29014" transform="translate(3.539 7.407)">
              <path id="Trazado_28378" data-name="Trazado 28378" d="M637.322-109.13a.684.684,0,0,1-.345-.089.8.8,0,0,1-.367-.727,1.766,1.766,0,0,1,.823-1.425.8.8,0,0,1,.813-.045.8.8,0,0,1,.367.726,1.768,1.768,0,0,1-.824,1.426A.944.944,0,0,1,637.322-109.13Zm.561-1.668c-.008.007-.042.015-.094.044a1.081,1.081,0,0,0-.466.808.273.273,0,0,0,.016.107.818.818,0,0,0,.094-.044,1.08,1.08,0,0,0,.467-.808A.265.265,0,0,0,637.883-110.8Z" transform="translate(-636.61 111.507)" fill="#ffb000"/>
            </g>
            <g id="Grupo_29015" data-name="Grupo 29015" transform="translate(5.791 6.106)">
              <path id="Trazado_28379" data-name="Trazado 28379" d="M639.315-110.281a.674.674,0,0,1-.345-.09.8.8,0,0,1-.367-.726,1.768,1.768,0,0,1,.824-1.425.8.8,0,0,1,.813-.045.8.8,0,0,1,.366.726,1.771,1.771,0,0,1-.823,1.426A.948.948,0,0,1,639.315-110.281Zm.562-1.668c-.008.007-.042.015-.094.044a1.084,1.084,0,0,0-.467.808.263.263,0,0,0,.017.107c.008-.007.042-.014.094-.044a1.081,1.081,0,0,0,.466-.808A.269.269,0,0,0,639.877-111.949Z" transform="translate(-638.603 112.658)" fill="#ffb000"/>
            </g>
            <g id="Grupo_29016" data-name="Grupo 29016" transform="translate(8.401 5.161)">
              <path id="Trazado_28380" data-name="Trazado 28380" d="M642.2-113.034a1.424,1.424,0,0,1-.644,1.117c-.356.206-.645.04-.645-.372a1.426,1.426,0,0,1,.645-1.117C641.913-113.612,642.2-113.445,642.2-113.034Z" transform="translate(-640.912 113.494)" fill="#ffb000"/>
            </g>
            <g id="Grupo_29017" data-name="Grupo 29017" transform="translate(10.299 3.504)">
              <path id="Trazado_28381" data-name="Trazado 28381" d="M643.3-112.583a.685.685,0,0,1-.345-.089.8.8,0,0,1-.367-.727,1.771,1.771,0,0,1,.823-1.426.8.8,0,0,1,.813-.044.8.8,0,0,1,.367.726,1.764,1.764,0,0,1-.824,1.425A.934.934,0,0,1,643.3-112.583Zm.56-1.668c-.008.007-.042.014-.094.044a1.082,1.082,0,0,0-.467.808.263.263,0,0,0,.017.107c.008-.006.042-.015.094-.044a1.08,1.08,0,0,0,.467-.808A.261.261,0,0,0,643.864-114.251Z" transform="translate(-642.591 114.961)" fill="#ffb000"/>
            </g>
            <g id="Grupo_29018" data-name="Grupo 29018" transform="translate(12.551 2.203)">
              <path id="Trazado_28382" data-name="Trazado 28382" d="M645.3-113.734a.681.681,0,0,1-.345-.09.8.8,0,0,1-.367-.726,1.765,1.765,0,0,1,.824-1.425.8.8,0,0,1,.812-.046.8.8,0,0,1,.367.727,1.771,1.771,0,0,1-.823,1.426A.948.948,0,0,1,645.3-113.734Zm.562-1.668c-.008.006-.042.015-.094.044a1.08,1.08,0,0,0-.467.808.265.265,0,0,0,.017.107c.008-.007.042-.014.094-.044a1.081,1.081,0,0,0,.466-.808A.3.3,0,0,0,645.858-115.4Z" transform="translate(-644.584 116.112)" fill="#ffb000"/>
            </g>
          </g>
          <g id="Grupo_29026" data-name="Grupo 29026" transform="translate(14.499 33.115)">
            <g id="Grupo_29020" data-name="Grupo 29020">
              <path id="Trazado_28383" data-name="Trazado 28383" d="M634.4-111.823a.818.818,0,0,1-.413-.109,1.155,1.155,0,0,1-.5-1.05v-2.164a2.554,2.554,0,0,1,1.1-2.06l13.355-7.711a.943.943,0,0,1,.956-.049,1.153,1.153,0,0,1,.5,1.05v2.164a2.553,2.553,0,0,1-1.094,2.06l-13.356,7.711A1.084,1.084,0,0,1,634.4-111.823Zm14.084-12.539a.416.416,0,0,0-.184.062l-13.356,7.711a1.865,1.865,0,0,0-.738,1.443v2.164c0,.244.07.392.139.433s.193-.02.243-.049l13.355-7.711a1.865,1.865,0,0,0,.738-1.443v-2.164c0-.243-.069-.392-.138-.433A.128.128,0,0,0,648.485-124.362Z" transform="translate(-633.493 125.074)" fill="#ffb000"/>
            </g>
            <g id="Grupo_29021" data-name="Grupo 29021" transform="translate(1.284 8.708)">
              <path id="Trazado_28384" data-name="Trazado 28384" d="M635.341-114.992a.692.692,0,0,1-.345-.09.8.8,0,0,1-.367-.727,1.769,1.769,0,0,1,.823-1.425.806.806,0,0,1,.814-.045.8.8,0,0,1,.366.726,1.77,1.77,0,0,1-.823,1.426A.939.939,0,0,1,635.341-114.992Zm.562-1.669c-.008.007-.042.015-.094.044a1.084,1.084,0,0,0-.467.808.258.258,0,0,0,.017.107.869.869,0,0,0,.093-.043,1.081,1.081,0,0,0,.467-.809A.268.268,0,0,0,635.9-116.661Z" transform="translate(-634.629 117.37)" fill="#ffb000"/>
            </g>
            <g id="Grupo_29022" data-name="Grupo 29022" transform="translate(3.895 7.762)">
              <path id="Trazado_28385" data-name="Trazado 28385" d="M638.229-117.746a1.428,1.428,0,0,1-.645,1.118c-.356.2-.644.038-.644-.373a1.424,1.424,0,0,1,.644-1.117C637.939-118.324,638.229-118.156,638.229-117.746Z" transform="translate(-636.939 118.206)" fill="#ffb000"/>
            </g>
            <g id="Grupo_29023" data-name="Grupo 29023" transform="translate(5.791 6.106)">
              <path id="Trazado_28386" data-name="Trazado 28386" d="M639.329-117.294a.686.686,0,0,1-.345-.09.8.8,0,0,1-.367-.727,1.769,1.769,0,0,1,.823-1.425.8.8,0,0,1,.813-.045.8.8,0,0,1,.367.727,1.769,1.769,0,0,1-.823,1.425A.938.938,0,0,1,639.329-117.294Zm.562-1.669c-.009.007-.042.015-.094.044a1.084,1.084,0,0,0-.467.808.293.293,0,0,0,.016.107.823.823,0,0,0,.094-.044,1.082,1.082,0,0,0,.467-.807A.3.3,0,0,0,639.891-118.963Z" transform="translate(-638.617 119.672)" fill="#ffb000"/>
            </g>
            <g id="Grupo_29024" data-name="Grupo 29024" transform="translate(8.044 4.804)">
              <path id="Trazado_28387" data-name="Trazado 28387" d="M641.322-118.445a.689.689,0,0,1-.345-.09.8.8,0,0,1-.367-.727,1.766,1.766,0,0,1,.824-1.425.8.8,0,0,1,.812-.045.8.8,0,0,1,.367.726,1.77,1.77,0,0,1-.823,1.426A.938.938,0,0,1,641.322-118.445Zm.562-1.669c-.008.007-.042.015-.094.044a1.084,1.084,0,0,0-.467.808.261.261,0,0,0,.017.107.809.809,0,0,0,.094-.044,1.079,1.079,0,0,0,.466-.808A.273.273,0,0,0,641.884-120.114Z" transform="translate(-640.61 120.823)" fill="#ffb000"/>
            </g>
            <g id="Grupo_29025" data-name="Grupo 29025" transform="translate(10.298 3.503)">
              <path id="Trazado_28388" data-name="Trazado 28388" d="M643.316-119.6a.688.688,0,0,1-.345-.089.8.8,0,0,1-.367-.727,1.766,1.766,0,0,1,.823-1.425.8.8,0,0,1,.813-.045.8.8,0,0,1,.367.726,1.769,1.769,0,0,1-.823,1.426A.948.948,0,0,1,643.316-119.6Zm.562-1.668c-.008.007-.042.015-.094.044a1.084,1.084,0,0,0-.467.808.267.267,0,0,0,.017.107.846.846,0,0,0,.093-.044,1.077,1.077,0,0,0,.467-.808A.3.3,0,0,0,643.878-121.265Z" transform="translate(-642.604 121.974)" fill="#ffb000"/>
            </g>
          </g>
          <g id="Grupo_29034" data-name="Grupo 29034" transform="translate(14.491 25.269)">
            <g id="Grupo_29027" data-name="Grupo 29027">
              <path id="Trazado_28389" data-name="Trazado 28389" d="M634.394-118.764a.821.821,0,0,1-.412-.109,1.156,1.156,0,0,1-.495-1.05v-2.164a2.552,2.552,0,0,1,1.1-2.06l13.355-7.712a.944.944,0,0,1,.957-.048,1.155,1.155,0,0,1,.5,1.05v2.164a2.554,2.554,0,0,1-1.1,2.06l-13.355,7.711A1.1,1.1,0,0,1,634.394-118.764ZM648.478-131.3a.421.421,0,0,0-.184.062l-13.355,7.711a1.861,1.861,0,0,0-.739,1.443v2.164c0,.243.07.392.139.432s.193-.019.243-.047l13.355-7.711a1.863,1.863,0,0,0,.739-1.443v-2.164c0-.243-.07-.392-.139-.433A.126.126,0,0,0,648.478-131.3Z" transform="translate(-633.486 132.015)" fill="#ffb000"/>
            </g>
            <g id="Grupo_29028" data-name="Grupo 29028" transform="translate(1.285 8.708)">
              <path id="Trazado_28390" data-name="Trazado 28390" d="M635.335-121.934a.685.685,0,0,1-.345-.089.8.8,0,0,1-.367-.727,1.769,1.769,0,0,1,.823-1.425.8.8,0,0,1,.813-.045.8.8,0,0,1,.367.726,1.768,1.768,0,0,1-.824,1.426A.944.944,0,0,1,635.335-121.934Zm.561-1.668c-.008.007-.042.015-.094.044a1.086,1.086,0,0,0-.466.808.294.294,0,0,0,.016.107.825.825,0,0,0,.094-.044,1.08,1.08,0,0,0,.467-.808A.266.266,0,0,0,635.9-123.6Z" transform="translate(-634.623 124.311)" fill="#ffb000"/>
            </g>
            <g id="Grupo_29029" data-name="Grupo 29029" transform="translate(3.538 7.407)">
              <path id="Trazado_28391" data-name="Trazado 28391" d="M637.328-123.084a.681.681,0,0,1-.345-.092.8.8,0,0,1-.367-.726,1.765,1.765,0,0,1,.824-1.425.8.8,0,0,1,.811-.045.8.8,0,0,1,.367.726,1.77,1.77,0,0,1-.823,1.426A.951.951,0,0,1,637.328-123.084Zm.562-1.669c-.008.007-.042.015-.094.044a1.082,1.082,0,0,0-.467.808.264.264,0,0,0,.017.107.828.828,0,0,0,.094-.044,1.081,1.081,0,0,0,.466-.808A.271.271,0,0,0,637.89-124.753Z" transform="translate(-636.616 125.462)" fill="#ffb000"/>
            </g>
            <g id="Grupo_29030" data-name="Grupo 29030" transform="translate(5.791 6.106)">
              <path id="Trazado_28392" data-name="Trazado 28392" d="M639.322-124.236a.688.688,0,0,1-.345-.089.8.8,0,0,1-.367-.727,1.771,1.771,0,0,1,.823-1.426.8.8,0,0,1,.813-.044.8.8,0,0,1,.367.726,1.77,1.77,0,0,1-.823,1.426A.948.948,0,0,1,639.322-124.236Zm.562-1.668c-.008.007-.042.014-.094.044a1.082,1.082,0,0,0-.467.808.265.265,0,0,0,.017.107.765.765,0,0,0,.093-.044,1.077,1.077,0,0,0,.467-.808A.3.3,0,0,0,639.884-125.9Z" transform="translate(-638.61 126.613)" fill="#ffb000"/>
            </g>
            <g id="Grupo_29031" data-name="Grupo 29031" transform="translate(8.401 5.161)">
              <path id="Trazado_28393" data-name="Trazado 28393" d="M642.209-126.989a1.424,1.424,0,0,1-.644,1.117c-.356.206-.645.04-.645-.372a1.425,1.425,0,0,1,.645-1.117C641.92-127.567,642.209-127.4,642.209-126.989Z" transform="translate(-640.919 127.449)" fill="#ffb000"/>
            </g>
            <g id="Grupo_29032" data-name="Grupo 29032" transform="translate(10.655 3.86)">
              <path id="Trazado_28394" data-name="Trazado 28394" d="M644.2-128.14a1.426,1.426,0,0,1-.645,1.117c-.356.206-.644.04-.644-.372a1.425,1.425,0,0,1,.644-1.117C643.913-128.718,644.2-128.551,644.2-128.14Z" transform="translate(-642.913 128.6)" fill="#ffb000"/>
            </g>
            <g id="Grupo_29033" data-name="Grupo 29033" transform="translate(12.551 2.203)">
              <path id="Trazado_28395" data-name="Trazado 28395" d="M645.3-127.689a.688.688,0,0,1-.345-.089.8.8,0,0,1-.367-.727,1.771,1.771,0,0,1,.823-1.426.8.8,0,0,1,.813-.044.8.8,0,0,1,.367.726,1.771,1.771,0,0,1-.823,1.426A.949.949,0,0,1,645.3-127.689Zm.562-1.668c-.008.007-.042.014-.094.044a1.082,1.082,0,0,0-.467.808.265.265,0,0,0,.017.107.862.862,0,0,0,.093-.044,1.082,1.082,0,0,0,.467-.808A.3.3,0,0,0,645.865-129.357Z" transform="translate(-644.591 130.067)" fill="#ffb000"/>
            </g>
          </g>
        </g>
        <g id="Grupo_29038" data-name="Grupo 29038" transform="translate(0 26.365)">
          <g id="Grupo_29036" data-name="Grupo 29036">
            <path id="Trazado_28396" data-name="Trazado 28396" d="M628.8-114.01l-9.316-5.378a.949.949,0,0,1-.4-.756v-10.144c0-.292.177-.426.4-.3l9.316,5.378a.949.949,0,0,1,.4.756v10.145C629.191-114.017,629.013-113.884,628.8-114.01Z" transform="translate(-618.621 131.099)" fill="#fff"/>
            <path id="Trazado_28397" data-name="Trazado 28397" d="M629.006-113.445a.787.787,0,0,1-.389-.11l-9.315-5.379a1.4,1.4,0,0,1-.627-1.157v-10.145a.8.8,0,0,1,.368-.721.709.709,0,0,1,.722.021l9.315,5.378a1.4,1.4,0,0,1,.627,1.157v10.145a.8.8,0,0,1-.368.721A.658.658,0,0,1,629.006-113.445Zm-9.4-16.514,0,9.868a.513.513,0,0,0,.164.355l9.014,5.2,0-9.868a.513.513,0,0,0-.164-.354Z" transform="translate(-618.674 131.046)" fill="#150035"/>
          </g>
          <g id="Grupo_29037" data-name="Grupo 29037" transform="translate(7.327 7.062)">
            <path id="Trazado_28398" data-name="Trazado 28398" d="M626.235-123.789c0,.344-.241.483-.539.311a1.193,1.193,0,0,1-.539-.934c0-.345.242-.484.539-.312A1.19,1.19,0,0,1,626.235-123.789Z" transform="translate(-625.157 124.797)" fill="#150035"/>
          </g>
        </g>
      </g>
      <g id="Grupo_29042" data-name="Grupo 29042" transform="translate(40.395 47.564)">
        <g id="Grupo_29040" data-name="Grupo 29040">
          <path id="Trazado_28399" data-name="Trazado 28399" d="M655.22-136.652l5.322-3.01a.946.946,0,0,0,.4-.756v-10.145c0-.292-.176-.425-.4-.3l-5.322,3.01a.946.946,0,0,0-.4.756v10.144C654.824-136.66,655-136.525,655.22-136.652Z" transform="translate(-654.361 151.374)" fill="#fff"/>
          <path id="Trazado_28400" data-name="Trazado 28400" d="M655.115-136.087a.666.666,0,0,1-.332-.089.8.8,0,0,1-.368-.722v-10.144a1.4,1.4,0,0,1,.626-1.157l5.328-3.012a.7.7,0,0,1,.719-.019.8.8,0,0,1,.367.721v10.145a1.4,1.4,0,0,1-.626,1.157L655.5-136.2A.771.771,0,0,1,655.115-136.087Zm5.413-14.151-5.027,2.843a.52.52,0,0,0-.159.353v9.873l5.027-2.843a.52.52,0,0,0,.159-.353Z" transform="translate(-654.414 151.32)" fill="#150035"/>
        </g>
        <g id="Grupo_29041" data-name="Grupo 29041" transform="translate(2.627 4.695)">
          <path id="Trazado_28401" data-name="Trazado 28401" d="M656.738-146.159c0,.345.242.484.539.312a1.191,1.191,0,0,0,.54-.935c0-.344-.242-.483-.54-.311A1.193,1.193,0,0,0,656.738-146.159Z" transform="translate(-656.738 147.166)" fill="#150035"/>
        </g>
      </g>
      <g id="Grupo_29052" data-name="Grupo 29052" transform="translate(36.871 73.633)">
        <g id="Grupo_29047" data-name="Grupo 29047" transform="translate(0 4.858)">
          <g id="Grupo_29043" data-name="Grupo 29043" transform="translate(0.001 1.92)">
            <path id="Trazado_28402" data-name="Trazado 28402" d="M674.288-107.315c0-.015,0-9.366,0-9.739a.082.082,0,0,0-.063-.079l-10.162.91-.02-.008-.931-5.606a.084.084,0,0,0-.086,0l-9.357,5.368a.084.084,0,0,1-.066.009l-1.789-.5a.084.084,0,0,0-.109.081c0,.457,0,9.6.008,9.648v.015a.984.984,0,0,0,.486.762l9.426,5.467a2.589,2.589,0,0,0,2.6,0l9.564-5.487a.992.992,0,0,0,.5-.828Z" transform="translate(-651.244 122.312)" fill="#ffb000"/>
            <path id="Trazado_28403" data-name="Trazado 28403" d="M662.985-100.121a3.05,3.05,0,0,1-1.536-.413L652.023-106a1.45,1.45,0,0,1-.714-1.114c-.006-.059-.007-.077-.01-7.512v-2.2a.542.542,0,0,1,.214-.436.555.555,0,0,1,.483-.093l1.637.455,9.221-5.29a.552.552,0,0,1,.547,0l.191.11.9,5.409,9.837-.883.081.023a.544.544,0,0,1,.4.527c0,.1,0,9.726,0,9.751l-.007.063a1.432,1.432,0,0,1-.723,1.171l-9.564,5.488A3.056,3.056,0,0,1,662.985-100.121Zm-10.761-16.206v1.7c0,2.721,0,7.273.007,7.434a.521.521,0,0,0,.257.39l9.426,5.467a2.13,2.13,0,0,0,2.133,0l9.564-5.488a.529.529,0,0,0,.265-.444l.466,0-.464,0c0-.088,0-7.438,0-9.316l-9.809.879-.2-.072-.2-.11-.866-5.214-9.026,5.179-.253-.045Z" transform="translate(-651.297 122.259)" fill="#150035"/>
          </g>
          <g id="Grupo_29044" data-name="Grupo 29044" transform="translate(11.148 6.633)">
            <path id="Trazado_28404" data-name="Trazado 28404" d="M672.943-117.674l-10.162.911-.02-.009-1.189,3.463,0,12.128a2.576,2.576,0,0,0,1.373-.342l9.564-5.487a.992.992,0,0,0,.5-.827l0-.017c0-.014,0-9.366,0-9.739A.082.082,0,0,0,672.943-117.674Z" transform="translate(-661.106 118.143)" fill="#150035"/>
            <path id="Trazado_28405" data-name="Trazado 28405" d="M661.7-100.662l-.094,0-.449-.014.027-12.728,1.377-4.009.377.231,10.1-.905.081.023a.541.541,0,0,1,.4.526c0,.1,0,9.726,0,9.751a1.472,1.472,0,0,1-.73,1.234l-9.564,5.489A3.047,3.047,0,0,1,661.7-100.662Zm.387-12.516,0,11.555a2.092,2.092,0,0,0,.677-.248l9.564-5.488a.527.527,0,0,0,.265-.444c0-.088,0-7.437,0-9.316l-9.445.847Z" transform="translate(-661.159 118.089)" fill="#150035"/>
          </g>
          <g id="Grupo_29045" data-name="Grupo 29045" transform="translate(0.001 6.76)">
            <path id="Trazado_28406" data-name="Trazado 28406" d="M653.155-116.237s.14-.379.315-.866l-1.655-.461a.084.084,0,0,0-.109.081c0,.457,0,9.6.008,9.648v.015a.984.984,0,0,0,.486.762l.951.553,0-7.434Z" transform="translate(-651.244 118.03)" fill="#150035"/>
            <path id="Trazado_28407" data-name="Trazado 28407" d="M653.668-105.647l-1.646-.956a1.449,1.449,0,0,1-.714-1.114c-.006-.059-.007-.077-.01-7.512v-2.2a.542.542,0,0,1,.214-.436.554.554,0,0,1,.483-.093l2.134.595-.167.469c-.128.357-.237.657-.287.792Zm-1.445-11.283v1.7c0,2.72,0,7.273.006,7.434a.531.531,0,0,0,.258.391l.254.147.032-9.086s.058-.155.144-.393Z" transform="translate(-651.297 117.977)" fill="#150035"/>
          </g>
          <g id="Grupo_29046" data-name="Grupo 29046">
            <path id="Trazado_28408" data-name="Trazado 28408" d="M661.675-110.472l-9.469-5.492a1,1,0,0,1,0-1.736l9.606-5.512a2.505,2.505,0,0,1,2.511,0l9.469,5.492a1,1,0,0,1,0,1.736l-9.606,5.512A2.5,2.5,0,0,1,661.675-110.472Z" transform="translate(-651.243 124.011)" fill="#fff"/>
            <path id="Trazado_28409" data-name="Trazado 28409" d="M662.987-109.616a2.962,2.962,0,0,1-1.492-.4l-9.469-5.492a1.456,1.456,0,0,1-.73-1.27,1.452,1.452,0,0,1,.733-1.268l9.607-5.513a2.973,2.973,0,0,1,2.975,0l9.469,5.492a1.456,1.456,0,0,1,.73,1.27,1.453,1.453,0,0,1-.733,1.268l-9.607,5.513A2.965,2.965,0,0,1,662.987-109.616Zm.132-13.415a2.042,2.042,0,0,0-1.021.274l-9.607,5.513a.529.529,0,0,0-.269.466.532.532,0,0,0,.269.468l9.469,5.492a2.044,2.044,0,0,0,2.047,0l9.607-5.513a.529.529,0,0,0,.269-.466.532.532,0,0,0-.269-.468l-9.469-5.491A2.04,2.04,0,0,0,663.12-123.031Z" transform="translate(-651.296 123.958)" fill="#150035"/>
          </g>
        </g>
        <g id="Grupo_29048" data-name="Grupo 29048" transform="translate(5.14 8.261)">
          <path id="Trazado_28410" data-name="Trazado 28410" d="M661.177-114.144l-4.505-2.541,6.565-3.79,4.506,2.541Z" transform="translate(-655.736 121.008)" fill="#fff"/>
          <path id="Trazado_28411" data-name="Trazado 28411" d="M661.287-113.548l-5.443-3.07,7.5-4.329,5.443,3.07Zm-3.574-3.08,3.568,2.013,5.632-3.252-3.567-2.013Z" transform="translate(-655.844 120.947)" fill="#150035"/>
        </g>
        <g id="Grupo_29051" data-name="Grupo 29051" transform="translate(7.639)">
          <g id="Grupo_29049" data-name="Grupo 29049" transform="translate(0.028 1.807)">
            <path id="Trazado_28412" data-name="Trazado 28412" d="M658.769-126.247a.279.279,0,0,0-.278.306l.824,8.285c0,.5.485.993,1.455,1.233a3.454,3.454,0,0,0,1.637,0c.97-.24,1.455-.737,1.455-1.233l.824-8.285a.28.28,0,0,0-.278-.306Z" transform="translate(-658.027 126.71)" fill="#ffb000"/>
            <path id="Trazado_28413" data-name="Trazado 28413" d="M661.641-115.808a3.915,3.915,0,0,1-.93-.112c-1.132-.28-1.806-.909-1.806-1.683l-.822-8.238a.748.748,0,0,1,.189-.572.745.745,0,0,1,.551-.244h5.638a.744.744,0,0,1,.55.244.747.747,0,0,1,.189.572l-.824,8.285c0,.728-.674,1.357-1.805,1.637A3.9,3.9,0,0,1,661.641-115.808Zm-2.615-9.922.8,8.082c0,.3.342.64,1.1.827a2.938,2.938,0,0,0,1.415,0c.762-.188,1.1-.528,1.1-.782l.806-8.128Z" transform="translate(-658.08 126.657)" fill="#150035"/>
          </g>
          <g id="Grupo_29050" data-name="Grupo 29050">
            <path id="Trazado_28414" data-name="Trazado 28414" d="M663.8-127.315a1.347,1.347,0,0,1,0,2.553,4.884,4.884,0,0,1-4.422,0,1.347,1.347,0,0,1,0-2.553A4.884,4.884,0,0,1,663.8-127.315Z" transform="translate(-658.002 128.31)" fill="#ffb000"/>
            <path id="Trazado_28415" data-name="Trazado 28415" d="M661.645-123.714a4.971,4.971,0,0,1-2.442-.593,1.989,1.989,0,0,1-1.147-1.678,1.989,1.989,0,0,1,1.147-1.677,5.323,5.323,0,0,1,4.885,0,1.989,1.989,0,0,1,1.147,1.677,1.989,1.989,0,0,1-1.147,1.678A4.974,4.974,0,0,1,661.645-123.714Zm0-3.611a4.064,4.064,0,0,0-1.979.465,1.14,1.14,0,0,0-.684.875,1.142,1.142,0,0,0,.684.876,4.455,4.455,0,0,0,3.958,0,1.142,1.142,0,0,0,.684-.876,1.141,1.141,0,0,0-.684-.875A4.064,4.064,0,0,0,661.645-127.325Z" transform="translate(-658.055 128.256)" fill="#150035"/>
          </g>
        </g>
      </g>
    </g>
  </g>
</svg>
